<svg width="80" height="28" viewBox="0 0 80 28" fill="none" xmlns="http://www.w3.org/2000/svg">
<path d="M22.2567 17.1148C22.0465 17.1644 21.9423 17.2932 21.904 17.4868C21.7242 18.4092 21.5123 19.3268 21.4697 20.266C21.4367 20.7036 21.4792 21.1432 21.5957 21.5684C21.8154 22.2884 22.3123 22.7844 23.1045 22.9284C24.5525 23.1924 25.8841 22.958 26.8673 21.8604C27.6065 21.034 27.9097 20.0828 27.4415 19.0252C27.392 18.9132 27.3651 18.798 27.5284 18.7676C28.0574 18.6692 28.5889 18.5276 29.1258 18.7332C29.7416 18.9732 30.0448 19.4196 30.0517 20.0132C30.063 21.1108 29.5305 21.9868 28.6211 22.658C27.5205 23.4716 26.2463 23.946 24.8582 24.1708C23.8715 24.3308 22.8786 24.3068 21.891 24.2124C20.4864 24.078 19.1644 23.7124 18.0361 22.886C16.82 21.9988 16.2476 20.806 16.1399 19.4156C16.1016 18.93 16.1338 18.4404 16.0738 17.9428C15.8932 18.3428 15.7177 18.7428 15.531 19.1428C14.889 20.506 14.0361 21.7284 12.7453 22.6596C11.9037 23.2701 10.9178 23.6894 9.86754 23.8836C9.80191 23.8919 9.73575 23.8962 9.6695 23.8964C9.53399 23.8356 9.39849 23.9004 9.26211 23.9004C6.51727 23.894 3.77271 23.894 1.02845 23.9004C0.698372 23.9004 0.369164 23.9068 0 23.8836C0.0616721 23.7996 0.11987 23.7292 0.093811 23.6436C0.883388 22.4356 1.157 21.0788 1.44452 19.7236C1.87883 17.6548 2.33486 15.5884 2.77872 13.5204C2.92726 12.8292 3.06623 12.1364 3.21303 11.4444C3.22851 11.4078 3.24072 11.3701 3.24951 11.3316C3.50836 10.1652 3.76663 8.99884 4.02432 7.83244C4.15687 7.44591 4.15929 7.03147 4.03127 6.64364C3.98958 6.45004 3.94441 6.25644 3.90532 6.06284C3.86624 5.84364 3.98176 5.80044 4.20065 5.80204C5.77981 5.80924 7.35983 5.80204 8.93899 5.80204C9.31162 5.80204 9.31162 5.80204 9.32378 6.14124C9.32253 6.20228 9.31731 6.26319 9.30815 6.32364C9.02498 7.65698 8.74094 8.99031 8.45603 10.3236C8.36917 10.7164 8.2936 11.11 8.20413 11.5444C8.49946 11.3796 8.74702 11.2388 8.99718 11.102C10.1029 10.4956 11.2556 10.0548 12.5863 10.138C14.1785 10.2388 15.3538 10.9076 16.0365 12.2548C16.529 13.2276 16.6315 14.2612 16.5577 15.3172C16.5455 15.5012 16.5351 15.6852 16.5238 15.8684C16.6631 15.6142 16.7884 15.3536 16.899 15.0876C17.263 14.298 17.7729 13.5892 18.3331 12.9084C18.3637 12.885 18.3927 12.8598 18.42 12.8332C19.3354 11.8461 20.513 11.0944 21.838 10.6516C23.3104 10.1397 24.8913 9.94806 26.4573 10.0916C27.2712 10.1716 28.0322 10.4076 28.7688 10.7244L28.7731 10.7292C29.3516 11.0364 29.9101 11.3692 30.3679 11.826C31.0923 12.5508 31.3998 13.426 31.4554 14.386C31.4955 15.2085 31.4152 16.0322 31.2165 16.8348C31.1905 16.9444 31.1792 17.07 31.0176 17.0948C30.9944 17.0786 30.9677 17.067 30.9392 17.0608C30.9108 17.0546 30.8813 17.0539 30.8526 17.0588H22.367C22.3271 17.0609 22.2874 17.0649 22.248 17.0708L22.2567 17.1148ZM22.4122 15.9028L22.3965 15.9404C22.4178 15.9478 22.44 15.9529 22.4626 15.9556H25.7147C25.7651 15.9556 25.8154 15.9556 25.845 15.906C26.1186 15.826 26.0656 15.5916 26.1108 15.4084C26.3767 14.3558 26.5249 13.2809 26.5529 12.2004C26.5642 11.5828 26.1186 11.1804 25.4532 11.1604C24.5151 11.1292 23.8662 11.5364 23.445 12.2804C22.8491 13.3316 22.5416 14.4668 22.3071 15.6236C22.2845 15.7348 22.2906 15.8364 22.4122 15.9028ZM6.37655 22.6836H6.85256C6.91144 22.6805 6.96973 22.6711 7.02628 22.6556C8.52378 22.2876 9.57047 21.462 10.0204 20.0764C10.5286 18.5164 10.8812 16.922 11.2122 15.3228C11.3696 14.5502 11.3062 13.7532 11.028 13.01C10.9758 12.8378 10.8679 12.6843 10.7186 12.57C10.5694 12.4556 10.3858 12.3859 10.1924 12.37C9.61738 12.298 9.124 12.4692 8.70359 12.83C7.94094 13.4836 7.53182 14.314 7.32769 15.2348C7.00543 16.6868 6.70142 18.1412 6.39306 19.5956C6.1898 20.5556 5.99523 21.5108 5.78502 22.4668C5.74941 22.6332 5.78502 22.698 5.97612 22.6876C6.10902 22.6772 6.24278 22.6836 6.37655 22.6836Z" fill="#D42127"/>
<path d="M48.79 24.26C47.9214 24.3144 47.0606 24.3704 46.1911 24.316C44.6206 24.2176 43.1031 23.94 41.7081 23.236C41.1713 22.9656 40.6849 22.6272 40.3895 22.1112C39.9396 21.3248 40.1663 20.3656 40.8152 19.6624C42.0139 18.3656 44.6371 18.1376 46.264 19.2872C46.458 19.4201 46.6331 19.5749 46.7852 19.748C46.9546 19.944 46.945 20.056 46.7357 20.216C46.5264 20.376 46.3014 20.524 46.1277 20.7272C45.3641 21.6208 45.7733 22.8432 46.9581 23.156C47.9926 23.4288 48.8551 23.1952 49.5917 22.4448C50.9494 21.06 51.7737 19.432 52.2844 17.6512C52.3991 17.2512 52.4877 16.844 52.5754 16.4384C52.6041 16.3072 52.6562 16.128 52.5277 16.052C52.4226 15.9896 52.2897 16.1216 52.1802 16.1912C51.1214 16.8792 49.9765 17.4008 48.7057 17.6536C47.1631 17.96 45.6299 17.9736 44.1264 17.4472C42.383 16.84 41.1131 15.1904 41.0653 13.4776C41.0567 12.6007 41.2113 11.7289 41.5222 10.9C41.5448 10.8352 41.5596 10.7672 41.5778 10.7008C41.61 10.64 41.6464 10.58 41.6734 10.5168C41.9963 9.75907 42.4588 9.05839 43.0406 8.44558C44.2037 7.22478 45.6864 6.45998 47.3159 5.90478C48.3057 5.57962 49.3397 5.38254 50.3882 5.31918C51.6868 5.22478 52.968 5.28798 54.231 5.60478C54.8443 5.77326 55.4377 5.99813 56.0021 6.27598C56.0284 6.30359 56.0575 6.32877 56.089 6.35118C56.7608 6.73842 57.3621 7.22089 57.8706 7.78078C58.3509 8.29758 58.6992 8.88878 59.0058 9.50398C59.0736 9.70638 59.1379 9.91038 59.2117 10.112C59.3715 10.5472 59.3985 11.0064 59.5036 11.452C59.5088 11.6173 59.5146 11.7826 59.5209 11.948V12.6384C59.5209 12.792 59.5114 12.9456 59.5062 13.0992C59.4653 13.3952 59.4349 13.6928 59.3802 13.9864C59.2986 14.4312 59.2004 14.8736 59.1092 15.3168C59.1035 15.3208 59.0996 15.3266 59.0983 15.3331C59.097 15.3397 59.0984 15.3464 59.1023 15.352C59.056 15.4254 59.0281 15.5074 59.0206 15.592L59.005 15.68C58.8063 16.2037 58.6071 16.728 58.4074 17.2528C58.2659 17.487 58.1428 17.7303 58.0391 17.9808L58.0451 17.9752L58.0104 18.0344C58.0075 18.0357 58.0048 18.0375 58.0027 18.0397C58.0005 18.0419 57.9988 18.0445 57.9978 18.0474C57.9967 18.0502 57.9963 18.0532 57.9965 18.0562C57.9968 18.0592 57.9976 18.0621 57.9991 18.0648C57.8487 18.275 57.718 18.4966 57.6082 18.7272C57.4879 18.8674 57.3864 19.0205 57.3059 19.1832L56.5998 20.1032C56.4464 20.2423 56.3099 20.3963 56.1924 20.5624L55.7268 21.0256C55.7235 21.0253 55.7202 21.0255 55.7171 21.0264C55.7139 21.0273 55.711 21.0287 55.7085 21.0307C55.706 21.0326 55.7039 21.035 55.7024 21.0377C55.701 21.0404 55.7001 21.0434 55.6999 21.0464C55.599 21.1177 55.511 21.2033 55.4393 21.3L54.3909 22.1368C53.7749 22.5356 53.1371 22.9049 52.4799 23.2432L51.5783 23.6144C51.2534 23.7096 50.9294 23.8064 50.6045 23.9C50.0199 24.0648 49.4006 24.14 48.79 24.26ZM54.1025 9.89758C54.1058 9.2887 54.0347 8.68141 53.8905 8.08718C53.7229 7.39358 53.3502 6.82318 52.5876 6.56718C51.9874 6.36958 51.3715 6.40718 50.7687 6.58318C49.8732 6.83998 49.2808 7.42638 48.7839 8.11998C48.0794 9.10238 47.6851 10.1904 47.4401 11.3384C47.21 12.4184 47.1796 13.4864 47.4957 14.5536C47.7025 15.2568 48.2063 15.8264 49.0593 15.9136C50.1311 16.02 51.0684 15.7208 51.8206 15.0336C53.3694 13.6256 54.0781 11.8856 54.1025 9.89438V9.89758Z" fill="#14B151"/>
<path d="M32.9052 13.2806L32.9269 13.1926C33.0138 12.7798 33.1102 12.3678 33.1875 11.9526C33.2327 11.719 33.1432 11.6326 32.8878 11.659C32.6975 11.6786 32.5057 11.6835 32.3145 11.6734C32.1573 11.6638 32.1339 11.6006 32.1947 11.4774C32.2413 11.3878 32.3093 11.3091 32.3936 11.247C32.761 10.955 33.1832 10.7342 33.5697 10.467C34.4262 9.87664 35.0776 9.10705 35.7534 8.35585C36.5882 7.43105 37.482 6.56625 38.6329 5.96545C39.2887 5.62305 39.9697 5.33825 40.7341 5.27585C40.8582 5.26385 40.9834 5.26385 41.1076 5.27585C41.2162 5.28785 41.3916 5.27104 41.4021 5.38704C41.4118 5.45641 41.4001 5.52691 41.3681 5.59035C41.3361 5.65379 41.2852 5.70757 41.2214 5.74545C41.0998 5.81158 40.9811 5.88251 40.8652 5.95825C39.8759 6.59825 39.3373 7.51744 38.9812 8.54704C38.8132 9.04665 38.6738 9.55401 38.5634 10.067C38.5043 10.331 38.5069 10.3318 38.8101 10.3318H40.3614C40.6151 10.3318 40.6585 10.3846 40.6081 10.6062C40.5352 10.9262 40.4665 11.2526 40.3936 11.575C40.3797 11.6334 40.3719 11.6998 40.2885 11.7174C39.69 11.7174 39.0915 11.7174 38.493 11.7174C38.4201 11.7174 38.3193 11.6718 38.2802 11.7806C38.1161 11.9078 38.1195 12.0958 38.083 12.2606C37.7495 13.835 37.4194 15.4084 37.0928 16.9806C36.8913 17.9454 36.7098 18.9134 36.47 19.871C36.4179 20.0798 36.3449 20.2846 36.2963 20.4942C36.1721 21.0246 36.4752 21.383 37.0633 21.415C37.4472 21.4358 37.8051 21.3278 38.163 21.2262C38.3289 21.1798 38.4088 21.1798 38.3584 21.3814C37.9302 23.0894 36.2555 24.3174 34.3766 24.2518C33.2257 24.211 32.2468 23.831 31.6387 22.8622C31.2322 22.215 31.2261 21.5286 31.3782 20.8102C31.8993 18.339 32.3918 15.8646 32.8948 13.391C32.9007 13.3545 32.9042 13.3176 32.9052 13.2806Z" fill="#D42128"/>
<path d="M57.1041 27.7732L56.9591 27.7644C56.8129 27.7141 56.659 27.6852 56.503 27.6788L56.4822 27.6684H56.4596C56.3728 27.5884 56.1808 27.6604 56.1582 27.4884L56.2129 27.4404L56.2816 27.3924C56.2846 27.3934 56.2879 27.3937 56.2912 27.3934C56.2944 27.393 56.2975 27.392 56.3003 27.3904C56.303 27.3888 56.3054 27.3866 56.3071 27.3841C56.3088 27.3815 56.3099 27.3786 56.3102 27.3756C56.3779 27.3198 56.4456 27.2641 56.5135 27.2084C56.6407 27.143 56.7463 27.047 56.8192 26.9308C56.9291 26.8609 57.017 26.7654 57.0737 26.654H57.0694C57.0831 26.6521 57.0955 26.6453 57.1041 26.6352C57.1126 26.6251 57.1167 26.6124 57.1154 26.5996C57.3361 26.3703 57.5057 26.1034 57.6149 25.814C57.6442 25.7775 57.6701 25.7387 57.6922 25.698C58.0813 24.818 58.2134 23.8788 58.4079 22.954L58.4192 22.8684C58.53 22.5033 58.6124 22.1315 58.6659 21.7556C58.7163 21.7196 58.705 21.6692 58.7015 21.6204L58.7172 21.4844C58.8409 21.0582 58.9374 20.6258 59.0064 20.1892L59.0116 20.142C59.0768 19.9797 59.1123 19.8086 59.1167 19.6356C59.188 19.4914 59.2227 19.3341 59.2184 19.1756C59.3817 18.5652 59.5189 17.95 59.6179 17.3276L59.6292 17.318L59.6231 17.3044C59.7804 16.702 59.9202 16.0964 60.0149 15.482C60.0209 15.4775 60.0249 15.4711 60.0262 15.464C60.0275 15.457 60.0259 15.4497 60.0218 15.4436C60.1861 14.8478 60.3172 14.2446 60.4144 13.6364C60.4206 13.632 60.4248 13.6256 60.426 13.6185C60.4273 13.6114 60.4257 13.6041 60.4214 13.598C60.4843 13.4489 60.5181 13.2908 60.5213 13.1308C60.543 13.066 60.5699 13.002 60.5873 12.9356C60.7515 12.302 60.7993 11.6724 60.5196 11.0524C60.4865 10.8196 60.305 10.6364 60.259 10.4068L60.3163 10.346L60.8184 10.3132H64.8757H65.627C65.8294 10.3132 65.9467 10.3892 65.9233 10.5916C65.8364 10.7604 65.8364 10.9468 65.7938 11.1252C65.667 11.7164 65.5506 12.3092 65.4299 12.902C65.4238 12.9071 65.4199 12.9139 65.4188 12.9214C65.4176 12.9289 65.4194 12.9365 65.4238 12.9428C65.3594 13.091 65.3256 13.2489 65.3239 13.4084C65.1293 14.1564 64.9877 14.914 64.8357 15.67L64.8227 15.8068C64.7271 16.0937 64.6619 16.3884 64.6281 16.6868L64.6238 16.7324C64.5656 16.8647 64.5341 17.0057 64.5308 17.1484L64.5204 17.2284C64.3931 17.6751 64.295 18.1285 64.2268 18.586C64.2268 18.6028 64.2268 18.6188 64.2207 18.6356C64.1247 18.9359 64.0587 19.2435 64.0236 19.5548C64.0174 19.5596 64.0134 19.5663 64.0121 19.5736C64.0108 19.581 64.0124 19.5885 64.0166 19.5948C63.9562 19.7285 63.925 19.8717 63.9246 20.0164L63.9193 20.062C63.7196 20.8092 63.5788 21.5668 63.4286 22.3236L63.4181 22.4148C63.3348 22.6876 63.2721 22.9653 63.2305 23.246C63.2253 23.2908 63.221 23.3348 63.2158 23.3796C63.042 23.9732 62.9552 24.5796 62.8223 25.1836C62.816 25.1874 62.8116 25.1932 62.8098 25.1999C62.808 25.2066 62.8091 25.2136 62.8127 25.2196C62.7615 25.2913 62.7316 25.374 62.7259 25.4596C62.7227 25.4609 62.7199 25.4628 62.7175 25.4651C62.7151 25.4674 62.7133 25.4701 62.7121 25.4731C62.7109 25.4761 62.7103 25.4793 62.7104 25.4824C62.7106 25.4856 62.7114 25.4887 62.7128 25.4916C62.0631 26.7604 60.8131 27.2404 59.4624 27.5804C59.115 27.6668 58.7675 27.7068 58.4123 27.7684L57.8042 27.7908H57.5167L57.1041 27.7732Z" fill="#14B151"/>
<path d="M79.9957 13.1C79.9957 13.4045 79.9971 13.7099 80 14.016C79.7603 15.6656 79.3737 17.2912 79.0445 18.9256C78.8977 19.6456 78.757 20.3728 78.6102 21.0952C78.4365 21.9456 78.5477 22.7928 78.6241 23.6408C78.6493 23.9264 78.6241 23.9608 78.3053 23.9608C76.9462 23.9608 75.5874 23.9624 74.2289 23.9656C74.0378 23.9656 73.8458 23.9752 73.6547 23.98C73.3229 23.9056 73.2769 23.8536 73.243 23.5328C73.2344 23.4416 73.2196 23.3511 73.1987 23.2616C73.1379 23.0128 73.0588 22.9696 72.8261 23.1016C72.3223 23.3784 71.8176 23.6544 71.2912 23.8944L71.2417 23.9064L71.0436 23.9864L70.0882 24.2584H70.0656L70.0456 24.2688C69.8565 24.2756 69.6692 24.3044 69.4879 24.3544L69.1943 24.368H68.6419L68.2006 24.352C68.0186 24.3016 67.8303 24.2728 67.6404 24.2664L67.6204 24.256L67.5978 24.26C67.2069 24.1368 66.8074 24.0344 66.4443 23.8424C65.6868 23.4471 65.1141 22.8085 64.8356 22.0488C64.8279 21.9064 64.7947 21.7661 64.7374 21.6336L64.7305 21.5416C64.7044 21.1224 64.7696 20.7088 64.833 20.296C64.8359 20.2944 64.8384 20.2922 64.8404 20.2897C64.8424 20.2871 64.8438 20.2842 64.8445 20.2811C64.8453 20.2781 64.8453 20.2749 64.8447 20.2718C64.844 20.2687 64.8427 20.2658 64.8408 20.2632C64.9807 19.904 65.0918 19.536 65.2829 19.1936C65.6226 18.5848 66.1116 18.0896 66.6406 17.6216L66.7023 17.5792L66.7457 17.5392L67.7516 16.8904L68.3761 16.6072C69.0345 16.308 69.7364 16.1136 70.4191 15.8712C70.4216 15.8727 70.4244 15.8736 70.4273 15.8739C70.4303 15.8742 70.4333 15.8739 70.436 15.873C70.4388 15.872 70.4413 15.8705 70.4434 15.8686C70.4454 15.8666 70.4469 15.8642 70.4478 15.8616C70.4809 15.8613 70.5139 15.8573 70.5459 15.8496C71.7081 15.476 72.8712 15.1048 74.01 14.672C74.4438 14.5116 74.7962 14.2069 74.9976 13.8184C75.2764 13.2888 75.2747 12.7336 75.1105 12.1784C75.041 11.944 74.8499 11.7944 74.6006 11.708C74.2599 11.5969 73.8932 11.5715 73.5383 11.6344C72.8738 11.7336 72.5238 12.1384 72.5411 12.7608C72.5472 12.944 72.5889 13.1256 72.6054 13.3088C72.6324 13.5992 72.5116 13.8152 72.2154 13.94C71.5778 14.2096 70.9325 14.4616 70.2228 14.5096C69.3472 14.5688 68.6002 14.3328 68.119 13.616C67.4441 12.6104 67.3173 11.52 67.5857 10.3776C67.6239 10.2136 67.7125 10.1728 67.8671 10.2624C68.4117 10.5776 69.0198 10.6544 69.6434 10.6352C70.843 10.589 72.0386 10.4774 73.2239 10.3008C74.3592 10.1408 75.4953 10.0984 76.6358 10.2664C77.2496 10.3692 77.8539 10.5152 78.4434 10.7032C79.0966 11.0232 79.5778 11.4848 79.8002 12.1536C79.9018 12.464 79.9305 12.7848 79.9957 13.1ZM74.4981 15.9232C74.0204 16.0968 73.5696 16.232 73.1683 16.472C72.2268 17.0418 71.4173 17.7779 70.7865 18.6376C70.2054 19.416 69.8597 20.244 70.0274 21.2112C70.1299 21.8016 70.6484 22.308 71.2512 22.3568C71.6647 22.3904 72.0104 22.2056 72.3535 22.0368C72.9659 21.7288 73.4132 21.2888 73.5262 20.632C73.7164 19.5248 73.9839 18.4312 74.2106 17.3304C74.3027 16.8704 74.3983 16.4128 74.4981 15.9232Z" fill="#14B151"/>
<path d="M64.1391 8.69243C66.6826 8.69243 68.7446 6.7934 68.7446 4.45083C68.7446 2.10826 66.6826 0.209229 64.1391 0.209229C61.5956 0.209229 59.5337 2.10826 59.5337 4.45083C59.5337 6.7934 61.5956 8.69243 64.1391 8.69243Z" fill="white" stroke="black" stroke-width="0.00535444"/>
<path d="M62.4315 0.512551L62.5948 0.878151M59.8916 4.42375C60.1392 4.96055 60.7168 5.10615 61.2301 5.31015M61.7678 1.58295C60.6308 1.83575 59.8994 2.93655 59.935 2.94295M62.8519 2.08695C62.4896 2.67015 62.4349 3.43895 62.6208 4.34935M64.0888 0.488549C64.4849 0.334149 65.1207 0.358151 65.8972 0.527751M61.9685 6.97975C61.7826 7.16535 61.6731 7.47655 61.5837 7.81895M64.5127 1.43255C64.9956 1.67255 65.8825 2.08375 66.4419 2.73335M63.7926 6.84055C64.2369 7.3581 64.8654 7.71452 65.5672 7.84695M66.4132 4.29575C65.7078 4.69742 64.954 5.02201 64.167 5.26295M67.7014 2.49975C67.6519 2.08295 67.4408 1.68135 67.1915 1.28215M68.3207 4.16855C68.4182 4.21005 68.5055 4.2693 68.5775 4.34271C68.6494 4.41613 68.7045 4.50221 68.7394 4.59575M67.5928 5.12295C67.6614 5.71975 67.3974 6.43175 67.1324 7.14615" stroke="black" stroke-width="0.00535444"/>
<path d="M62.4541 0.551712C63.0609 0.436676 63.6811 0.392329 64.2999 0.419713C64.4684 0.707713 64.5318 1.09651 64.6117 1.48291C63.8943 1.74531 63.2072 2.00771 62.7616 2.25011C62.2873 2.02611 62.0267 1.97331 61.4751 1.65651C61.6576 1.25731 61.9885 0.889312 62.4541 0.551712ZM67.7014 2.42611C68.0089 3.01731 68.3095 3.60931 68.4311 4.21411C68.1418 4.61411 67.8413 5.05971 67.5972 5.25891C67.202 5.04451 66.7286 4.69411 66.2682 4.37891C66.2786 3.69571 66.3064 3.18931 66.3273 2.61891C66.8189 2.50531 67.2923 2.41251 67.7014 2.42611ZM59.6232 5.25971C59.4424 4.39543 59.558 3.50072 59.9542 2.69971L60.0654 2.72771C59.9142 3.33011 59.7996 3.92771 59.9507 4.47171C59.785 4.70708 59.7011 4.98333 59.7101 5.26371L59.6232 5.25971ZM62.5913 4.19731C63.1994 4.54051 63.7926 4.87491 64.3659 5.20371C64.3147 5.82531 64.0975 6.38771 63.9203 6.96371C63.2897 7.14931 62.5896 7.02131 61.9225 7.02851C61.4282 6.38291 61.3509 5.83811 61.1572 5.26851C61.5836 4.85806 62.0639 4.49821 62.587 4.19731H62.5913ZM67.5147 7.33251C66.8514 7.99193 65.9778 8.44017 65.02 8.61251L64.815 8.52691C65.0582 8.37251 65.2354 8.11091 65.3813 7.79811C65.8791 7.76931 66.5514 7.34131 67.1924 6.98451C67.3146 7.08711 67.4215 7.20412 67.5103 7.33251H67.5147ZM62.2969 8.33251C61.6836 8.08428 61.1364 7.71602 60.6934 7.25331C60.9974 7.50851 61.2493 7.73331 61.608 7.75331C61.6445 7.91251 61.8226 8.09251 62.2925 8.33251H62.2969Z" fill="black"/>
</svg>
