<svg width="794" height="421" viewBox="0 0 794 421" fill="none" xmlns="http://www.w3.org/2000/svg">
<path d="M793.036 0H0.963623V420.677H793.036V0Z" fill="#3E5A2C"/>
<path d="M146.951 0H52.9827V420.677H146.951V0Z" fill="#4C8527"/>
<path d="M295.226 0H201.258V420.677H295.226V0Z" fill="#4C8527"/>
<path d="M439.945 0H345.976V420.677H439.945V0Z" fill="#4C8527"/>
<path d="M588.22 0H494.251V420.677H588.22V0Z" fill="#4C8527"/>
<path d="M740.958 0H646.99V420.677H740.958V0Z" fill="#4C8527"/>
<path d="M757.896 195.767L752.773 197.944C752.773 197.944 751.929 198.246 751.387 199.697C750.784 201.148 747.65 208.282 747.65 208.282C747.65 208.282 747.167 209.008 748.192 209.492C749.217 210.036 751.869 211.124 752.17 211.184C752.532 211.245 752.833 210.701 752.893 210.519C752.954 210.338 754.099 207.799 754.4 207.617C754.521 212.152 754.28 222.672 754.039 225.453C753.798 228.234 753.195 230.048 754.039 230.411C754.882 230.773 757.595 231.197 763.683 231.197C769.77 231.197 771.458 230.531 771.458 230.531C771.458 230.531 772.242 230.411 771.94 229.322C771.639 228.234 771.458 225.937 771.338 224.606C771.217 223.216 771.096 208.403 771.096 207.315C771.759 208.585 772.844 210.459 772.965 210.822C773.086 211.245 773.628 211.305 774.592 211.003C775.617 210.64 777.968 209.431 777.908 208.827C777.847 208.222 775.979 204.292 775.677 203.385C775.316 202.478 774.592 199.879 773.387 198.609C772.181 197.339 769.168 196.493 768.324 196.07C767.48 195.646 767.239 195.767 767.239 195.767C767.239 195.767 765.31 196.311 762.417 196.311C759.644 196.311 758.499 195.344 757.896 195.767Z" fill="#D1D3D4"/>
<path d="M758.318 195.646C758.318 195.646 758.74 194.74 759.464 195.102C760.247 195.465 761.633 195.525 762.779 195.525C763.924 195.525 766.214 195.042 766.214 195.042C766.214 195.042 766.938 194.679 767.36 195.707C767.36 195.828 767.36 195.828 767.36 195.828C767.36 195.828 765.491 196.371 762.598 196.371C759.765 196.251 758.318 195.646 758.318 195.646Z" fill="#808285"/>
<path d="M747.709 208.343C747.709 208.343 748.733 209.068 750.18 209.793C751.627 210.518 752.832 210.76 752.832 210.76C752.832 210.76 752.531 211.304 752.229 211.243C751.928 211.122 749.577 210.216 749.095 209.974C748.613 209.733 747.829 209.37 747.769 209.189C747.648 209.007 747.468 208.705 747.709 208.343Z" fill="#808285"/>
<path d="M777.907 208.343C777.907 208.343 777.063 209.007 776.461 209.37C775.798 209.733 774.351 210.579 773.025 210.699C773.145 211.062 773.567 211.304 774.17 211.122C774.833 210.941 775.978 210.518 776.641 210.035C777.365 209.551 778.028 209.068 777.967 208.826C777.967 208.524 777.907 208.343 777.907 208.343Z" fill="#808285"/>
<path d="M26.2214 195.767L21.0981 197.944C21.0981 197.944 20.2542 198.246 19.7117 199.697C19.109 201.148 15.9747 208.282 15.9747 208.282C15.9747 208.282 15.4925 209.008 16.5172 209.492C17.5418 210.036 20.1939 211.124 20.4953 211.184C20.857 211.245 21.1583 210.701 21.2186 210.519C21.2789 210.338 22.4241 207.799 22.7255 207.617C22.846 212.152 22.6049 222.672 22.3638 225.453C22.1227 228.234 21.52 230.048 22.3638 230.411C23.2077 230.773 25.92 231.197 32.0681 231.197C38.1559 231.197 39.8436 230.531 39.8436 230.531C39.8436 230.531 40.6271 230.411 40.3258 229.322C40.0244 228.234 39.8436 225.937 39.723 224.606C39.6025 223.216 39.4819 208.403 39.4819 207.315C40.1449 208.585 41.2299 210.459 41.3504 210.822C41.471 211.245 42.0134 211.305 42.9778 211.003C44.0025 210.64 46.3532 209.431 46.293 208.827C46.2327 208.222 44.3642 204.292 44.0628 203.385C43.7011 202.478 42.9778 199.879 41.7723 198.609C40.5066 197.339 37.5531 196.493 36.7093 196.07C35.8654 195.646 35.6243 195.767 35.6243 195.767C35.6243 195.767 33.6955 196.311 30.8023 196.311C27.9091 196.311 26.7639 195.344 26.2214 195.767Z" fill="#F7941E"/>
<path d="M26.5808 195.646C26.5808 195.646 27.0027 194.74 27.726 195.102C28.5096 195.465 29.8959 195.525 31.0412 195.525C32.2467 195.525 34.4768 195.042 34.4768 195.042C34.4768 195.042 35.2001 194.679 35.622 195.707C35.622 195.828 35.622 195.828 35.622 195.828C35.622 195.828 33.7535 196.371 30.8603 196.371C28.0877 196.251 26.5808 195.646 26.5808 195.646Z" fill="#F15A29"/>
<path d="M15.9741 208.343C15.9741 208.343 16.9987 209.068 18.4453 209.793C19.8919 210.518 21.0974 210.76 21.0974 210.76C21.0974 210.76 20.7961 211.304 20.4947 211.243C20.1933 211.122 17.8426 210.216 17.3604 209.974C16.8782 209.733 16.0946 209.37 16.0343 209.189C15.9138 209.007 15.733 208.705 15.9741 208.343Z" fill="#F15A29"/>
<path d="M46.1721 208.343C46.1721 208.343 45.3282 209.007 44.7255 209.37C44.0624 209.733 42.6158 210.579 41.2898 210.699C41.4103 211.062 41.8323 211.304 42.435 211.122C43.098 210.941 44.2433 210.518 44.9063 210.035C45.6296 209.551 46.2926 209.068 46.2323 208.826C46.2323 208.524 46.1721 208.343 46.1721 208.343Z" fill="#F15A29"/>
<path d="M28.3869 214.692V212.938H29.8938V205.562H28.3267V203.809H32.3048V212.938H33.6911V214.692H28.3869Z" fill="white"/>
<path d="M760.126 214.692V212.938H761.633V205.562H760.066V203.809H764.044V212.938H765.43V214.692H760.126Z" fill="#414042"/>
<path d="M236.782 256.413L231.658 258.589C231.658 258.589 230.814 258.891 230.272 260.342C229.669 261.793 226.535 268.928 226.535 268.928C226.535 268.928 226.053 269.653 227.077 270.137C228.102 270.681 230.754 271.769 231.056 271.83C231.417 271.89 231.719 271.346 231.779 271.165C231.839 270.983 232.984 268.444 233.286 268.263C233.406 272.797 233.165 283.317 232.924 286.098C232.683 288.879 232.08 290.693 232.924 291.056C233.768 291.419 236.48 291.842 242.628 291.842C248.716 291.842 250.404 291.177 250.404 291.177C250.404 291.177 251.187 291.056 250.886 289.968C250.585 288.879 250.404 286.582 250.283 285.252C250.163 283.861 250.042 269.049 250.042 267.96C250.705 269.23 251.79 271.104 251.911 271.467C252.031 271.89 252.574 271.951 253.538 271.648C254.563 271.286 256.914 270.076 256.853 269.472C256.793 268.867 254.924 264.937 254.623 264.03C254.261 263.124 253.538 260.524 252.333 259.254C251.067 257.984 248.113 257.138 247.27 256.715C246.426 256.292 246.185 256.413 246.185 256.413C246.185 256.413 244.256 256.957 241.363 256.957C238.469 256.957 237.324 255.989 236.782 256.413Z" fill="#ED1C24"/>
<path d="M237.204 256.291C237.204 256.291 237.626 255.385 238.349 255.748C239.133 256.11 240.519 256.17 241.664 256.17C242.87 256.17 245.1 255.687 245.1 255.687C245.1 255.687 245.823 255.325 246.245 256.352C246.245 256.473 246.245 256.473 246.245 256.473C246.245 256.473 244.377 257.016 241.483 257.016C238.65 256.896 237.204 256.291 237.204 256.291Z" fill="#F9ED32"/>
<path d="M226.596 268.987C226.596 268.987 227.621 269.712 229.067 270.438C230.514 271.163 231.72 271.404 231.72 271.404C231.72 271.404 231.418 271.948 231.117 271.888C230.815 271.767 228.465 270.861 227.983 270.619C227.5 270.377 226.717 270.015 226.656 269.833C226.536 269.652 226.295 269.35 226.596 268.987Z" fill="#F9ED32"/>
<path d="M256.792 268.987C256.792 268.987 255.949 269.652 255.346 270.015C254.683 270.377 253.236 271.223 251.91 271.344C252.031 271.707 252.453 271.948 253.055 271.767C253.718 271.586 254.864 271.163 255.527 270.679C256.25 270.196 256.913 269.712 256.853 269.471C256.792 269.169 256.792 268.987 256.792 268.987Z" fill="#F9ED32"/>
<path d="M243.472 270.735C244.738 271.219 245.341 272.126 245.341 273.395C245.341 274.363 245.04 275.149 244.377 275.693C243.714 276.237 242.809 276.539 241.544 276.539C240.278 276.539 239.374 276.237 238.711 275.632C238.108 275.028 237.746 274.242 237.746 273.335C237.746 272.065 238.409 271.158 239.675 270.675C238.59 270.07 238.108 269.224 238.108 268.196C238.108 267.349 238.409 266.684 239.012 266.14C239.615 265.596 240.459 265.354 241.544 265.354C242.629 265.354 243.533 265.596 244.135 266.14C244.738 266.684 245.04 267.349 245.04 268.135C245.04 269.284 244.557 270.131 243.472 270.735ZM243.051 273.214C243.051 272.73 242.93 272.307 242.629 272.005C242.327 271.702 242.026 271.521 241.544 271.521C241.122 271.521 240.76 271.702 240.519 272.005C240.218 272.307 240.097 272.73 240.097 273.274C240.097 273.819 240.218 274.181 240.519 274.484C240.82 274.786 241.122 274.907 241.604 274.907C242.026 274.907 242.387 274.786 242.689 274.484C242.93 274.121 243.051 273.698 243.051 273.214ZM242.87 268.498C242.87 268.075 242.749 267.712 242.568 267.47C242.327 267.228 242.026 267.047 241.604 267.047C241.242 267.047 240.941 267.168 240.7 267.41C240.459 267.652 240.338 268.014 240.338 268.498C240.338 268.921 240.459 269.224 240.7 269.526C240.941 269.768 241.242 269.949 241.664 269.949C242.026 269.949 242.388 269.828 242.568 269.526C242.749 269.284 242.87 268.921 242.87 268.498Z" fill="white"/>
<path d="M236.782 193.232L231.658 195.408C231.658 195.408 230.814 195.711 230.272 197.162C229.669 198.613 226.535 205.747 226.535 205.747C226.535 205.747 226.053 206.473 227.077 206.956C228.102 207.5 230.754 208.589 231.056 208.649C231.417 208.71 231.719 208.165 231.779 207.984C231.839 207.803 232.984 205.263 233.286 205.082C233.406 209.616 233.165 220.136 232.924 222.917C232.683 225.699 232.08 227.512 232.924 227.875C233.768 228.238 236.48 228.661 242.628 228.661C248.716 228.661 250.404 227.996 250.404 227.996C250.404 227.996 251.187 227.875 250.886 226.787C250.585 225.699 250.404 223.401 250.283 222.071C250.163 220.681 250.042 205.868 250.042 204.78C250.705 206.049 251.79 207.924 251.911 208.286C252.031 208.71 252.574 208.77 253.538 208.468C254.563 208.105 256.914 206.896 256.853 206.291C256.793 205.687 254.924 201.757 254.623 200.85C254.261 199.943 253.538 197.343 252.333 196.073C251.127 194.804 248.113 193.957 247.27 193.534C246.426 193.111 246.185 193.232 246.185 193.232C246.185 193.232 244.256 193.776 241.363 193.776C238.469 193.776 237.324 192.869 236.782 193.232Z" fill="#ED1C24"/>
<path d="M237.204 193.111C237.204 193.111 237.626 192.205 238.349 192.568C239.133 192.93 240.519 192.991 241.664 192.991C242.87 192.991 245.1 192.507 245.1 192.507C245.1 192.507 245.823 192.145 246.245 193.172C246.245 193.293 246.245 193.293 246.245 193.293C246.245 193.293 244.377 193.837 241.483 193.837C238.65 193.776 237.204 193.111 237.204 193.111Z" fill="#F9ED32"/>
<path d="M226.596 205.807C226.596 205.807 227.621 206.533 229.067 207.258C230.514 207.983 231.72 208.224 231.72 208.224C231.72 208.224 231.418 208.768 231.117 208.708C230.815 208.587 228.465 207.681 227.983 207.439C227.5 207.197 226.717 206.835 226.656 206.653C226.536 206.472 226.295 206.17 226.596 205.807Z" fill="#F9ED32"/>
<path d="M256.792 205.869C256.792 205.869 255.949 206.534 255.346 206.896C254.683 207.259 253.236 208.105 251.91 208.226C252.031 208.588 252.453 208.83 253.055 208.649C253.718 208.467 254.864 208.044 255.527 207.561C256.25 207.077 256.913 206.594 256.853 206.352C256.792 205.99 256.792 205.869 256.792 205.869Z" fill="#F9ED32"/>
<path d="M237.746 210.948L239.796 210.706C239.916 211.734 240.398 212.278 241.242 212.278C241.724 212.278 242.086 212.097 242.327 211.794C242.568 211.492 242.689 211.008 242.689 210.464C242.689 209.194 242.207 208.529 241.303 208.529C240.76 208.529 240.338 208.832 239.976 209.376L238.229 208.529L238.53 203.028H244.618V205.567H243.051L242.93 204.781H240.157L239.976 207.381C240.519 206.957 241.182 206.776 241.845 206.776C242.93 206.776 243.714 207.139 244.316 207.804C244.919 208.469 245.22 209.315 245.22 210.343C245.22 211.371 244.919 212.278 244.256 213.003C243.653 213.729 242.689 214.092 241.423 214.092C240.338 214.092 239.494 213.789 238.892 213.245C238.229 212.58 237.867 211.855 237.746 210.948Z" fill="white"/>
<path d="M236.782 132.228L231.658 134.405C231.658 134.405 230.814 134.707 230.272 136.158C229.669 137.609 226.535 144.744 226.535 144.744C226.535 144.744 226.053 145.469 227.077 145.953C228.102 146.497 230.754 147.585 231.056 147.646C231.417 147.706 231.719 147.162 231.779 146.981C231.839 146.799 232.984 144.26 233.286 144.079C233.406 148.613 233.165 159.133 232.924 161.914C232.683 164.695 232.08 166.509 232.924 166.872C233.768 167.235 236.48 167.658 242.628 167.658C248.716 167.658 250.404 166.993 250.404 166.993C250.404 166.993 251.187 166.872 250.886 165.783C250.585 164.695 250.404 162.398 250.283 161.068C250.163 159.677 250.042 144.865 250.042 143.776C250.705 145.046 251.79 146.92 251.911 147.283C252.031 147.706 252.574 147.767 253.538 147.464C254.563 147.101 256.914 145.892 256.853 145.288C256.793 144.683 254.924 140.753 254.623 139.846C254.261 138.939 253.538 136.34 252.333 135.07C251.067 133.8 248.113 132.954 247.27 132.531C246.426 132.108 246.185 132.228 246.185 132.228C246.185 132.228 244.256 132.773 241.363 132.773C238.469 132.773 237.324 131.866 236.782 132.228Z" fill="#ED1C24"/>
<path d="M237.204 132.108C237.204 132.108 237.626 131.202 238.349 131.564C239.133 131.927 240.519 131.987 241.664 131.987C242.87 131.987 245.1 131.504 245.1 131.504C245.1 131.504 245.823 131.141 246.245 132.168C246.245 132.289 246.245 132.289 246.245 132.289C246.245 132.289 244.377 132.833 241.483 132.833C238.65 132.773 237.204 132.108 237.204 132.108Z" fill="#F9ED32"/>
<path d="M226.596 144.804C226.596 144.804 227.621 145.529 229.067 146.254C230.514 146.98 231.72 147.221 231.72 147.221C231.72 147.221 231.418 147.765 231.117 147.705C230.815 147.584 228.465 146.677 227.983 146.436C227.5 146.194 226.717 145.831 226.656 145.65C226.536 145.469 226.295 145.167 226.596 144.804Z" fill="#F9ED32"/>
<path d="M256.792 144.865C256.792 144.865 255.949 145.53 255.346 145.893C254.683 146.255 253.236 147.101 251.91 147.222C252.031 147.585 252.453 147.826 253.055 147.645C253.718 147.464 254.864 147.041 255.527 146.557C256.25 146.074 256.913 145.591 256.853 145.349C256.792 144.986 256.792 144.865 256.792 144.865Z" fill="#F9ED32"/>
<path d="M245.099 144.019L243.231 144.2C242.99 143.293 242.568 142.81 241.965 142.81C241.483 142.81 241.061 143.112 240.82 143.656C240.518 144.261 240.398 144.986 240.398 145.893C240.88 145.409 241.543 145.167 242.327 145.167C243.17 145.167 243.894 145.47 244.436 146.014C244.979 146.619 245.28 147.404 245.28 148.553C245.28 149.762 244.979 150.73 244.376 151.334C243.773 151.939 242.99 152.302 241.965 152.302C240.639 152.302 239.675 151.878 239.012 150.972C238.348 150.065 238.047 148.735 238.047 146.8C238.047 144.805 238.409 143.354 239.132 142.447C239.855 141.54 240.82 141.117 242.086 141.117C243.894 141.117 244.858 142.084 245.099 144.019ZM240.398 147.404C240.398 148.614 240.579 149.4 240.82 149.883C241.061 150.307 241.423 150.548 241.905 150.548C242.266 150.548 242.507 150.367 242.749 150.065C242.99 149.762 243.05 149.279 243.05 148.674C243.05 148.13 242.929 147.646 242.688 147.404C242.447 147.102 242.146 146.981 241.724 146.981C241.242 146.981 240.82 147.102 240.398 147.404Z" fill="white"/>
<path d="M649.945 123.216L644.822 125.392C644.822 125.392 643.978 125.695 643.435 127.146C642.833 128.597 639.698 135.731 639.698 135.731C639.698 135.731 639.216 136.456 640.241 136.94C641.265 137.424 643.918 138.572 644.219 138.633C644.581 138.693 644.882 138.149 644.942 137.968C645.003 137.787 646.148 135.247 646.449 135.066C646.57 139.6 646.329 150.12 646.088 152.901C645.846 155.683 645.244 157.496 646.088 157.859C646.931 158.222 649.644 158.645 655.731 158.645C661.819 158.645 663.507 157.98 663.507 157.98C663.507 157.98 664.291 157.859 663.989 156.771C663.688 155.683 663.507 153.385 663.386 152.055C663.266 150.664 663.145 135.852 663.145 134.764C663.808 136.033 664.893 137.907 665.014 138.27C665.134 138.693 665.677 138.754 666.641 138.452C667.666 138.089 670.017 136.88 669.956 136.275C669.896 135.67 668.028 131.741 667.726 130.834C667.365 129.927 666.641 127.327 665.436 126.057C664.23 124.788 661.216 123.941 660.373 123.518C659.529 123.095 659.288 123.216 659.288 123.216C659.288 123.216 657.359 123.76 654.466 123.76C651.693 123.76 650.548 122.853 649.945 123.216Z" fill="#2B3990"/>
<path d="M650.367 123.096C650.367 123.096 650.789 122.189 651.513 122.552C652.296 122.914 653.683 122.975 654.828 122.975C655.973 122.975 658.263 122.491 658.263 122.491C658.263 122.491 658.987 122.129 659.409 123.156C659.409 123.277 659.409 123.277 659.409 123.277C659.409 123.277 657.54 123.821 654.647 123.821C651.814 123.76 650.367 123.096 650.367 123.096Z" fill="#1C75BC"/>
<path d="M639.758 135.791C639.758 135.791 640.783 136.516 642.229 137.241C643.676 137.966 644.881 138.208 644.881 138.208C644.881 138.208 644.58 138.752 644.279 138.692C643.977 138.571 641.626 137.664 641.144 137.423C640.662 137.181 639.879 136.818 639.818 136.637C639.698 136.456 639.517 136.154 639.758 135.791Z" fill="#1C75BC"/>
<path d="M669.956 135.852C669.956 135.852 669.112 136.517 668.509 136.88C667.846 137.242 666.4 138.088 665.074 138.209C665.194 138.572 665.616 138.813 666.219 138.632C666.882 138.451 668.027 138.028 668.69 137.544C669.414 137.061 670.077 136.577 670.016 136.336C670.016 135.973 669.956 135.852 669.956 135.852Z" fill="#1C75BC"/>
<path d="M648.256 142.684V140.931H649.762V133.555H648.195V131.802H652.173V140.931H653.56V142.684H648.256Z" fill="white"/>
<path d="M654.344 139.782L656.393 139.54C656.513 140.568 656.996 141.112 657.839 141.112C658.322 141.112 658.683 140.931 658.924 140.628C659.165 140.326 659.286 139.842 659.286 139.298C659.286 138.029 658.804 137.364 657.9 137.364C657.357 137.364 656.935 137.666 656.574 138.21L654.826 137.364L655.127 131.862H661.215V134.401H659.648L659.527 133.615H656.755L656.574 136.215C657.116 135.792 657.779 135.61 658.442 135.61C659.527 135.61 660.311 135.973 660.913 136.638C661.516 137.303 661.818 138.15 661.818 139.177C661.818 140.205 661.516 141.112 660.853 141.838C660.25 142.563 659.286 142.926 658.02 142.926C656.935 142.926 656.091 142.624 655.489 142.079C654.826 141.475 654.464 140.689 654.344 139.782Z" fill="white"/>
<path d="M649.945 193.047L644.822 195.223C644.822 195.223 643.978 195.526 643.435 196.977C642.833 198.428 639.698 205.562 639.698 205.562C639.698 205.562 639.216 206.287 640.241 206.771C641.265 207.255 643.918 208.404 644.219 208.464C644.581 208.524 644.882 207.98 644.942 207.799C645.003 207.618 646.148 205.078 646.449 204.897C646.57 209.431 646.329 219.951 646.088 222.732C645.846 225.514 645.244 227.327 646.088 227.69C646.931 228.053 649.644 228.476 655.731 228.476C661.819 228.476 663.507 227.811 663.507 227.811C663.507 227.811 664.291 227.69 663.989 226.602C663.688 225.514 663.507 223.216 663.386 221.886C663.266 220.495 663.145 205.683 663.145 204.595C663.808 205.864 664.893 207.738 665.014 208.101C665.134 208.524 665.677 208.585 666.641 208.283C667.666 207.92 670.017 206.711 669.956 206.106C669.896 205.501 668.028 201.572 667.726 200.665C667.365 199.758 666.641 197.158 665.436 195.888C664.17 194.619 661.216 193.772 660.373 193.349C659.529 192.926 659.288 193.047 659.288 193.047C659.288 193.047 657.359 193.591 654.466 193.591C651.693 193.591 650.548 192.624 649.945 193.047Z" fill="#2B3990"/>
<path d="M650.367 192.926C650.367 192.926 650.789 192.019 651.513 192.382C652.296 192.745 653.683 192.805 654.828 192.805C655.973 192.805 658.263 192.322 658.263 192.322C658.263 192.322 658.987 191.959 659.409 192.986C659.409 193.107 659.409 193.107 659.409 193.107C659.409 193.107 657.54 193.651 654.647 193.651C651.814 193.53 650.367 192.926 650.367 192.926Z" fill="#1C75BC"/>
<path d="M639.758 205.562C639.758 205.562 640.783 206.287 642.229 207.013C643.676 207.738 644.881 207.979 644.881 207.979C644.881 207.979 644.58 208.523 644.279 208.463C643.977 208.342 641.626 207.436 641.144 207.194C640.662 206.952 639.879 206.59 639.818 206.408C639.698 206.287 639.517 205.925 639.758 205.562Z" fill="#1C75BC"/>
<path d="M669.956 205.622C669.956 205.622 669.112 206.287 668.509 206.649C667.846 207.012 666.4 207.858 665.074 207.979C665.194 208.341 665.616 208.583 666.219 208.402C666.882 208.22 668.027 207.797 668.69 207.314C669.414 206.831 670.077 206.347 670.016 206.105C670.016 205.743 669.956 205.622 669.956 205.622Z" fill="#1C75BC"/>
<path d="M648.256 213.422V211.669H649.762V204.293H648.195V202.54H652.173V211.669H653.56V213.422H648.256Z" fill="white"/>
<path d="M654.645 210.641L656.513 210.46C656.755 211.367 657.116 211.851 657.779 211.851C658.744 211.851 659.286 210.823 659.407 208.767C658.864 209.19 658.141 209.432 657.418 209.432C656.634 209.432 655.911 209.13 655.368 208.525C654.826 207.921 654.524 207.074 654.524 206.047C654.524 204.958 654.826 204.112 655.429 203.447C656.031 202.782 656.875 202.419 657.96 202.419C659.166 202.419 660.13 202.842 660.733 203.689C661.396 204.535 661.697 205.986 661.697 207.981C661.697 211.73 660.371 213.604 657.719 213.604C656.875 213.604 656.152 213.362 655.609 212.878C655.067 212.334 654.705 211.609 654.645 210.641ZM659.407 207.195V207.074C659.407 206.228 659.286 205.563 658.985 204.958C658.744 204.354 658.322 204.112 657.779 204.112C657.418 204.112 657.177 204.293 656.935 204.595C656.755 204.898 656.634 205.381 656.634 205.926C656.634 206.409 656.755 206.832 656.996 207.195C657.237 207.558 657.538 207.739 658.02 207.739C658.442 207.739 658.924 207.558 659.407 207.195Z" fill="white"/>
<path d="M649.945 265.659L644.822 267.835C644.822 267.835 643.978 268.137 643.435 269.589C642.833 271.04 639.698 278.174 639.698 278.174C639.698 278.174 639.216 278.899 640.241 279.383C641.265 279.927 643.918 281.015 644.219 281.076C644.581 281.136 644.882 280.592 644.942 280.411C645.003 280.229 646.148 277.69 646.449 277.509C646.57 282.043 646.329 292.563 646.088 295.344C645.846 298.125 645.244 299.939 646.088 300.302C646.931 300.665 649.644 301.088 655.731 301.088C661.819 301.088 663.507 300.423 663.507 300.423C663.507 300.423 664.291 300.302 663.989 299.214C663.688 298.125 663.507 295.828 663.386 294.498C663.266 293.107 663.145 278.295 663.145 277.206C663.808 278.476 664.893 280.35 665.014 280.713C665.134 281.136 665.677 281.197 666.641 280.894C667.666 280.532 670.017 279.322 669.956 278.718C669.896 278.113 668.028 274.183 667.726 273.277C667.365 272.37 666.641 269.77 665.436 268.5C664.17 267.231 661.216 266.384 660.373 265.961C659.529 265.538 659.288 265.659 659.288 265.659C659.288 265.659 657.359 266.203 654.466 266.203C651.693 266.203 650.548 265.296 649.945 265.659Z" fill="#2B3990"/>
<path d="M650.367 265.538C650.367 265.538 650.789 264.632 651.513 264.994C652.296 265.357 653.683 265.417 654.828 265.417C655.973 265.417 658.263 264.934 658.263 264.934C658.263 264.934 658.987 264.571 659.409 265.599C659.409 265.719 659.409 265.719 659.409 265.719C659.409 265.719 657.54 266.263 654.647 266.263C651.814 266.203 650.367 265.538 650.367 265.538Z" fill="#1C75BC"/>
<path d="M639.758 278.234C639.758 278.234 640.783 278.959 642.229 279.684C643.676 280.409 644.881 280.651 644.881 280.651C644.881 280.651 644.58 281.195 644.279 281.134C643.977 281.014 641.626 280.107 641.144 279.865C640.662 279.624 639.879 279.261 639.818 279.08C639.698 278.899 639.517 278.596 639.758 278.234Z" fill="#1C75BC"/>
<path d="M669.956 278.295C669.956 278.295 669.112 278.96 668.509 279.322C667.846 279.685 666.4 280.531 665.074 280.652C665.194 281.014 665.616 281.256 666.219 281.075C666.882 280.893 668.027 280.47 668.69 279.987C669.414 279.503 670.077 279.02 670.016 278.778C670.016 278.416 669.956 278.295 669.956 278.295Z" fill="#1C75BC"/>
<path d="M650.908 282.649L653.017 282.467C653.017 283.737 653.499 284.402 654.464 284.402C654.886 284.402 655.247 284.221 655.489 283.918C655.73 283.616 655.91 283.193 655.91 282.77C655.91 282.286 655.79 281.923 655.549 281.621C655.308 281.319 654.886 281.137 654.404 281.137C654.283 281.137 654.102 281.137 653.921 281.137V279.323C654.524 279.323 655.006 279.203 655.247 278.9C655.549 278.598 655.669 278.296 655.669 277.872C655.669 277.51 655.549 277.207 655.368 277.026C655.127 276.784 654.886 276.663 654.524 276.663C653.741 276.663 653.379 277.147 653.379 278.114L651.33 277.933C651.39 276.966 651.691 276.18 652.294 275.696C652.897 275.152 653.68 274.91 654.645 274.91C655.73 274.91 656.513 275.152 657.116 275.696C657.719 276.18 658.02 276.905 658.02 277.812C658.02 278.961 657.478 279.807 656.393 280.291C657.719 280.714 658.382 281.621 658.382 282.891C658.382 283.918 658.02 284.704 657.357 285.309C656.694 285.914 655.79 286.155 654.705 286.155C652.354 286.095 651.089 284.946 650.908 282.649Z" fill="white"/>
<path d="M474.021 161.063L468.898 163.24C468.898 163.24 468.054 163.542 467.511 164.993C466.909 166.444 463.774 173.578 463.774 173.578C463.774 173.578 463.292 174.304 464.317 174.787C465.341 175.332 467.993 176.42 468.295 176.48C468.657 176.541 468.958 175.997 469.018 175.815C469.078 175.634 470.224 173.095 470.525 172.913C470.646 177.448 470.404 187.968 470.163 190.749C469.922 193.53 469.32 195.344 470.163 195.706C471.007 196.069 473.72 196.492 479.868 196.492C485.955 196.492 487.643 195.827 487.643 195.827C487.643 195.827 488.427 195.706 488.125 194.618C487.824 193.53 487.643 191.232 487.523 189.902C487.402 188.512 487.281 173.699 487.281 172.611C487.944 173.881 489.029 175.755 489.15 176.118C489.271 176.541 489.813 176.601 490.777 176.299C491.802 175.936 494.153 174.727 494.093 174.122C494.032 173.518 492.164 169.588 491.862 168.681C491.501 167.774 490.777 165.174 489.572 163.905C488.306 162.635 485.353 161.789 484.509 161.365C483.665 160.942 483.424 161.063 483.424 161.063C483.424 161.063 481.495 161.607 478.602 161.607C475.769 161.607 474.624 160.64 474.021 161.063Z" fill="#2B3990"/>
<path d="M474.443 160.942C474.443 160.942 474.865 160.036 475.588 160.399C476.372 160.761 477.758 160.822 478.903 160.822C480.109 160.822 482.339 160.338 482.339 160.338C482.339 160.338 483.062 159.976 483.484 161.003C483.484 161.124 483.484 161.124 483.484 161.124C483.484 161.124 481.616 161.668 478.722 161.668C475.889 161.607 474.443 160.942 474.443 160.942Z" fill="#1C75BC"/>
<path d="M463.834 173.639C463.834 173.639 464.859 174.364 466.306 175.089C467.752 175.814 468.958 176.056 468.958 176.056C468.958 176.056 468.656 176.6 468.355 176.539C468.054 176.418 465.703 175.512 465.221 175.27C464.738 175.029 463.955 174.666 463.895 174.485C463.834 174.303 463.593 174.001 463.834 173.639Z" fill="#1C75BC"/>
<path d="M494.031 173.7C494.031 173.7 493.188 174.364 492.585 174.727C491.922 175.09 490.475 175.936 489.149 176.056C489.27 176.419 489.692 176.661 490.294 176.479C490.957 176.298 492.103 175.875 492.766 175.392C493.489 174.908 494.152 174.425 494.092 174.183C494.031 173.821 494.031 173.7 494.031 173.7Z" fill="#1C75BC"/>
<path d="M474.021 233.736L468.898 235.913C468.898 235.913 468.054 236.215 467.511 237.666C466.909 239.117 463.774 246.251 463.774 246.251C463.774 246.251 463.292 246.977 464.317 247.46C465.341 248.004 467.993 249.093 468.295 249.153C468.657 249.214 468.958 248.67 469.018 248.488C469.078 248.307 470.224 245.767 470.525 245.586C470.646 250.121 470.404 260.64 470.163 263.422C469.922 266.203 469.32 268.017 470.163 268.379C471.007 268.742 473.72 269.165 479.868 269.165C485.955 269.165 487.643 268.5 487.643 268.5C487.643 268.5 488.427 268.379 488.125 267.291C487.824 266.203 487.643 263.905 487.523 262.575C487.402 261.185 487.281 246.372 487.281 245.284C487.944 246.553 489.029 248.428 489.15 248.79C489.271 249.214 489.813 249.274 490.777 248.972C491.802 248.609 494.153 247.4 494.093 246.795C494.032 246.191 492.164 242.261 491.862 241.354C491.501 240.447 490.777 237.847 489.572 236.578C488.306 235.308 485.353 234.462 484.509 234.038C483.665 233.615 483.424 233.736 483.424 233.736C483.424 233.736 481.495 234.28 478.602 234.28C475.769 234.28 474.624 233.313 474.021 233.736Z" fill="#2B3990"/>
<path d="M474.443 233.615C474.443 233.615 474.865 232.708 475.588 233.071C476.372 233.434 477.758 233.494 478.903 233.494C480.109 233.494 482.339 233.011 482.339 233.011C482.339 233.011 483.062 232.648 483.484 233.675C483.484 233.796 483.484 233.796 483.484 233.796C483.484 233.796 481.616 234.34 478.722 234.34C475.889 234.219 474.443 233.615 474.443 233.615Z" fill="#1C75BC"/>
<path d="M463.833 246.311C463.833 246.311 464.858 247.036 466.305 247.762C467.751 248.487 468.957 248.728 468.957 248.728C468.957 248.728 468.655 249.272 468.354 249.212C468.053 249.091 465.702 248.185 465.22 247.943C464.738 247.701 463.954 247.339 463.894 247.157C463.773 246.976 463.592 246.613 463.833 246.311Z" fill="#1C75BC"/>
<path d="M494.031 246.311C494.031 246.311 493.188 246.976 492.585 247.339C491.922 247.701 490.475 248.547 489.149 248.668C489.27 249.031 489.692 249.272 490.294 249.091C490.957 248.91 492.103 248.487 492.766 248.003C493.489 247.52 494.152 247.036 494.092 246.795C494.031 246.493 494.031 246.311 494.031 246.311Z" fill="#1C75BC"/>
<path d="M475.347 177.146L477.215 176.965C477.456 177.872 477.818 178.355 478.481 178.355C479.445 178.355 479.988 177.327 480.108 175.272C479.566 175.695 478.843 175.937 478.119 175.937C477.336 175.937 476.612 175.635 476.07 175.03C475.527 174.425 475.226 173.579 475.226 172.551C475.226 171.463 475.527 170.616 476.13 169.951C476.733 169.286 477.577 168.924 478.662 168.924C479.867 168.924 480.832 169.347 481.434 170.193C482.097 171.04 482.399 172.491 482.399 174.486C482.399 178.234 481.073 180.109 478.421 180.109C477.577 180.109 476.853 179.867 476.311 179.383C475.708 178.839 475.407 178.113 475.347 177.146ZM480.048 173.7V173.579C480.048 172.733 479.928 172.067 479.626 171.463C479.385 170.858 478.963 170.616 478.421 170.616C478.059 170.616 477.818 170.798 477.577 171.1C477.396 171.402 477.275 171.886 477.275 172.43C477.275 172.914 477.396 173.337 477.637 173.7C477.878 174.063 478.18 174.244 478.662 174.244C479.084 174.244 479.566 174.063 480.048 173.7Z" fill="white"/>
<path d="M472.451 252.236V250.483H473.958V243.107H472.391V241.354H476.369V250.483H477.756V252.236H472.451Z" fill="white"/>
<path d="M484.627 250.483V252.236H479.384V250.483H480.77C480.83 249.395 481.132 248.125 481.674 246.674C482.217 245.223 482.819 244.014 483.482 243.046H480.71V244.558H478.962V241.354H485.773V242.684C485.23 243.349 484.688 244.497 484.145 246.13C483.603 247.762 483.301 249.213 483.301 250.483H484.627Z" fill="white"/>
<path d="M559.833 348.245L554.709 350.421C554.709 350.421 553.865 350.724 553.323 352.175C552.72 353.626 549.586 360.76 549.586 360.76C549.586 360.76 549.104 361.485 550.128 361.969C551.153 362.513 553.805 363.602 554.106 363.662C554.468 363.722 554.769 363.178 554.83 362.997C554.89 362.816 556.035 360.276 556.337 360.095C556.457 364.629 556.216 375.149 555.975 377.93C555.734 380.712 555.131 382.525 555.975 382.888C556.819 383.251 559.531 383.674 565.679 383.674C571.767 383.674 573.455 383.009 573.455 383.009C573.455 383.009 574.238 382.888 573.937 381.8C573.635 380.712 573.455 378.414 573.334 377.084C573.214 375.693 573.093 360.881 573.093 359.793C573.756 361.062 574.841 362.936 574.962 363.299C575.082 363.722 575.625 363.783 576.589 363.481C577.614 363.118 579.964 361.909 579.904 361.304C579.844 360.7 577.975 356.77 577.674 355.863C577.312 354.956 576.589 352.356 575.383 351.086C574.118 349.817 571.164 348.97 570.32 348.547C569.476 348.124 569.235 348.245 569.235 348.245C569.235 348.245 567.307 348.789 564.413 348.789C561.52 348.789 560.375 347.882 559.833 348.245Z" fill="#2B3990"/>
<path d="M560.192 348.124C560.192 348.124 560.614 347.218 561.337 347.58C562.121 347.943 563.507 348.003 564.652 348.003C565.858 348.003 568.088 347.52 568.088 347.52C568.088 347.52 568.811 347.157 569.233 348.185C569.233 348.305 569.233 348.305 569.233 348.305C569.233 348.305 567.365 348.849 564.471 348.849C561.639 348.789 560.192 348.124 560.192 348.124Z" fill="#1C75BC"/>
<path d="M549.585 360.821C549.585 360.821 550.61 361.546 552.056 362.271C553.503 362.996 554.708 363.238 554.708 363.238C554.708 363.238 554.407 363.782 554.106 363.721C553.804 363.6 551.453 362.694 550.971 362.452C550.489 362.21 549.705 361.848 549.645 361.667C549.525 361.485 549.344 361.183 549.585 360.821Z" fill="#1C75BC"/>
<path d="M579.783 360.882C579.783 360.882 578.939 361.547 578.337 361.909C577.674 362.272 576.227 363.118 574.901 363.239C575.021 363.601 575.443 363.843 576.046 363.662C576.709 363.48 577.854 363.057 578.517 362.574C579.241 362.09 579.904 361.607 579.843 361.365C579.843 361.003 579.783 360.882 579.783 360.882Z" fill="#1C75BC"/>
<path d="M567.97 363.724L567.849 366.868H560.917C560.917 365.9 560.978 365.175 561.159 364.691C561.339 364.147 561.581 363.663 561.942 363.18C562.304 362.696 562.786 362.152 563.389 361.547C564.233 360.761 564.775 360.217 565.016 359.855C565.257 359.492 565.438 359.069 565.438 358.645C565.438 358.283 565.318 358.041 565.137 357.799C564.956 357.557 564.715 357.497 564.413 357.497C563.991 357.497 563.69 357.678 563.449 358.041C563.268 358.403 563.148 359.008 563.087 359.794L561.098 359.673C561.098 358.645 561.279 357.859 561.58 357.315C561.882 356.771 562.304 356.408 562.846 356.166C563.389 355.925 563.931 355.804 564.594 355.804C565.619 355.804 566.463 356.106 567.005 356.65C567.608 357.194 567.909 357.92 567.909 358.766C567.909 359.25 567.849 359.673 567.668 360.036C567.487 360.399 567.246 360.761 567.005 361.003C566.704 361.245 566.282 361.668 565.559 362.152C564.534 362.877 563.871 363.482 563.63 363.905C563.389 364.329 563.208 364.752 563.148 365.054H566.282V363.663H567.97V363.724Z" fill="white"/>
<path d="M559.833 263.845L554.709 266.021C554.709 266.021 553.865 266.324 553.323 267.775C552.72 269.226 549.586 276.36 549.586 276.36C549.586 276.36 549.104 277.085 550.128 277.569C551.153 278.113 553.805 279.201 554.106 279.262C554.468 279.322 554.769 278.778 554.83 278.597C554.89 278.415 556.035 275.876 556.337 275.695C556.457 280.229 556.216 290.749 555.975 293.53C555.734 296.311 555.131 298.125 555.975 298.488C556.819 298.851 559.531 299.274 565.679 299.274C571.767 299.274 573.455 298.609 573.455 298.609C573.455 298.609 574.238 298.488 573.937 297.4C573.635 296.311 573.455 294.014 573.334 292.684C573.214 291.293 573.093 276.481 573.093 275.392C573.756 276.662 574.841 278.536 574.962 278.899C575.082 279.322 575.625 279.383 576.589 279.08C577.614 278.718 579.964 277.508 579.904 276.904C579.844 276.299 577.975 272.369 577.674 271.463C577.312 270.556 576.589 267.956 575.383 266.686C574.118 265.417 571.164 264.57 570.32 264.147C569.476 263.724 569.235 263.845 569.235 263.845C569.235 263.845 567.307 264.389 564.413 264.389C561.52 264.389 560.375 263.421 559.833 263.845Z" fill="#2B3990"/>
<path d="M560.192 263.723C560.192 263.723 560.614 262.817 561.337 263.18C562.121 263.542 563.507 263.603 564.652 263.603C565.858 263.603 568.088 263.119 568.088 263.119C568.088 263.119 568.811 262.757 569.233 263.784C569.233 263.905 569.233 263.905 569.233 263.905C569.233 263.905 567.365 264.449 564.471 264.449C561.639 264.328 560.192 263.723 560.192 263.723Z" fill="#1C75BC"/>
<path d="M549.585 276.419C549.585 276.419 550.61 277.144 552.056 277.869C553.503 278.595 554.708 278.836 554.708 278.836C554.708 278.836 554.407 279.38 554.106 279.32C553.804 279.199 551.453 278.292 550.971 278.051C550.489 277.809 549.705 277.446 549.645 277.265C549.525 277.084 549.344 276.782 549.585 276.419Z" fill="#1C75BC"/>
<path d="M579.783 276.419C579.783 276.419 578.939 277.084 578.337 277.446C577.674 277.809 576.227 278.655 574.901 278.776C575.021 279.138 575.443 279.38 576.046 279.199C576.709 279.018 577.854 278.595 578.517 278.111C579.241 277.628 579.904 277.144 579.843 276.903C579.843 276.6 579.783 276.419 579.783 276.419Z" fill="#1C75BC"/>
<path d="M565.017 280.774L564.896 283.918H557.964C557.964 282.95 558.025 282.225 558.205 281.741C558.386 281.197 558.627 280.713 558.989 280.23C559.351 279.746 559.833 279.202 560.436 278.597C561.279 277.811 561.822 277.267 562.063 276.905C562.304 276.542 562.485 276.119 562.485 275.695C562.485 275.333 562.364 275.091 562.184 274.849C562.003 274.607 561.762 274.547 561.46 274.547C561.038 274.547 560.737 274.728 560.496 275.091C560.315 275.453 560.195 276.058 560.134 276.844L558.145 276.723C558.145 275.695 558.326 274.909 558.627 274.365C558.929 273.821 559.351 273.458 559.893 273.217C560.436 272.975 560.978 272.854 561.641 272.854C562.666 272.854 563.51 273.156 564.052 273.7C564.655 274.244 564.956 274.97 564.956 275.816C564.956 276.3 564.896 276.723 564.715 277.086C564.534 277.449 564.293 277.811 564.052 278.053C563.751 278.295 563.329 278.718 562.606 279.202C561.581 279.928 560.918 280.532 560.677 280.955C560.436 281.379 560.255 281.802 560.195 282.104H563.329V280.713H565.017V280.774Z" fill="white"/>
<path d="M566.343 283.917V282.164H567.85V274.788H566.282V273.035H570.261V282.164H571.647V283.917H566.343Z" fill="white"/>
<path d="M559.833 124.787L554.709 126.963C554.709 126.963 553.865 127.266 553.323 128.717C552.72 130.168 549.586 137.302 549.586 137.302C549.586 137.302 549.104 138.027 550.128 138.511C551.153 139.055 553.805 140.144 554.106 140.204C554.468 140.264 554.769 139.72 554.83 139.539C554.89 139.358 556.035 136.818 556.337 136.637C556.457 141.171 556.216 151.691 555.975 154.472C555.734 157.254 555.131 159.067 555.975 159.43C556.819 159.793 559.531 160.216 565.679 160.216C571.767 160.216 573.455 159.551 573.455 159.551C573.455 159.551 574.238 159.43 573.937 158.342C573.635 157.254 573.455 154.956 573.334 153.626C573.214 152.235 573.093 137.423 573.093 136.335C573.756 137.604 574.841 139.478 574.962 139.841C575.082 140.264 575.625 140.325 576.589 140.023C577.614 139.66 579.964 138.451 579.904 137.846C579.844 137.241 577.975 133.312 577.674 132.405C577.312 131.498 576.589 128.898 575.383 127.628C574.118 126.359 571.164 125.512 570.32 125.089C569.476 124.666 569.235 124.787 569.235 124.787C569.235 124.787 567.307 125.331 564.413 125.331C561.52 125.331 560.375 124.424 559.833 124.787Z" fill="#2B3990"/>
<path d="M560.192 124.666C560.192 124.666 560.614 123.76 561.337 124.123C562.121 124.485 563.507 124.546 564.652 124.546C565.858 124.546 568.088 124.062 568.088 124.062C568.088 124.062 568.811 123.7 569.233 124.727C569.233 124.848 569.233 124.848 569.233 124.848C569.233 124.848 567.365 125.391 564.471 125.391C561.639 125.331 560.192 124.666 560.192 124.666Z" fill="#1C75BC"/>
<path d="M549.585 137.363C549.585 137.363 550.61 138.088 552.056 138.813C553.503 139.538 554.708 139.78 554.708 139.78C554.708 139.78 554.407 140.324 554.106 140.263C553.804 140.142 551.453 139.236 550.971 138.994C550.489 138.752 549.705 138.39 549.645 138.209C549.525 138.088 549.344 137.725 549.585 137.363Z" fill="#1C75BC"/>
<path d="M579.783 137.424C579.783 137.424 578.939 138.088 578.337 138.451C577.674 138.813 576.227 139.659 574.901 139.78C575.021 140.143 575.443 140.385 576.046 140.203C576.709 140.022 577.854 139.599 578.517 139.116C579.241 138.632 579.904 138.149 579.843 137.907C579.843 137.544 579.783 137.424 579.783 137.424Z" fill="#1C75BC"/>
<path d="M558.145 143.712V141.958H559.652V134.582H558.085V132.829H562.063V141.958H563.449V143.712H558.145Z" fill="white"/>
<path d="M569.958 138.029C571.224 138.512 571.827 139.419 571.827 140.689C571.827 141.656 571.525 142.442 570.862 142.986C570.199 143.53 569.295 143.833 568.029 143.833C566.764 143.833 565.86 143.53 565.197 142.926C564.594 142.321 564.232 141.535 564.232 140.628C564.232 139.359 564.895 138.452 566.161 137.968C565.076 137.364 564.594 136.517 564.594 135.489C564.594 134.643 564.895 133.978 565.498 133.434C566.101 132.89 566.945 132.648 568.029 132.648C569.114 132.648 570.019 132.89 570.621 133.434C571.224 133.978 571.525 134.643 571.525 135.429C571.525 136.578 570.983 137.424 569.958 138.029ZM569.536 140.507C569.536 140.024 569.416 139.601 569.114 139.298C568.813 138.996 568.512 138.815 568.029 138.815C567.608 138.815 567.246 138.996 567.005 139.298C566.703 139.601 566.583 140.024 566.583 140.568C566.583 141.112 566.703 141.475 567.005 141.777C567.306 142.079 567.608 142.2 568.09 142.2C568.512 142.2 568.873 142.079 569.175 141.777C569.416 141.414 569.536 140.991 569.536 140.507ZM569.356 135.792C569.356 135.368 569.235 135.006 569.054 134.764C568.873 134.522 568.512 134.341 568.09 134.341C567.728 134.341 567.427 134.461 567.186 134.703C566.945 134.945 566.824 135.308 566.824 135.792C566.824 136.215 566.945 136.517 567.186 136.819C567.427 137.061 567.728 137.243 568.15 137.243C568.512 137.243 568.873 137.122 569.054 136.819C569.235 136.578 569.356 136.215 569.356 135.792Z" fill="white"/>
<path d="M559.833 40.3867L554.709 42.5632C554.709 42.5632 553.865 42.8655 553.323 44.3165C552.72 45.7676 549.586 52.9018 549.586 52.9018C549.586 52.9018 549.104 53.6273 550.128 54.111C551.153 54.6551 553.805 55.7434 554.106 55.8038C554.468 55.8643 554.769 55.3202 554.83 55.1388C554.89 54.9574 556.035 52.4181 556.337 52.2367C556.457 56.7712 556.216 67.2911 555.975 70.0723C555.734 72.8534 555.131 74.6672 555.975 75.03C556.819 75.3927 559.531 75.8159 565.679 75.8159C571.767 75.8159 573.455 75.1509 573.455 75.1509C573.455 75.1509 574.238 75.0299 573.937 73.9417C573.635 72.8534 573.455 70.556 573.334 69.2258C573.214 67.8353 573.093 53.0227 573.093 51.9344C573.756 53.2041 574.841 55.0783 574.962 55.4411C575.082 55.8643 575.625 55.9248 576.589 55.6225C577.614 55.2597 579.964 54.0505 579.904 53.4459C579.844 52.8413 577.975 48.9115 577.674 48.0046C577.312 47.0977 576.589 44.4979 575.383 43.2283C574.118 41.9586 571.164 41.1122 570.32 40.689C569.476 40.2657 569.235 40.3867 569.235 40.3867C569.235 40.3867 567.307 40.9308 564.413 40.9308C561.52 40.9308 560.375 39.9634 559.833 40.3867Z" fill="#2B3990"/>
<path d="M560.192 40.2657C560.192 40.2657 560.614 39.3593 561.337 39.7219C562.121 40.0844 563.507 40.1449 564.652 40.1449C565.858 40.1449 568.088 39.6614 568.088 39.6614C568.088 39.6614 568.811 39.2989 569.233 40.3262C569.233 40.447 569.233 40.447 569.233 40.447C569.233 40.447 567.365 40.9909 564.471 40.9909C561.639 40.87 560.192 40.2657 560.192 40.2657Z" fill="#1C75BC"/>
<path d="M549.585 52.9619C549.585 52.9619 550.61 53.6871 552.056 54.4122C553.503 55.1373 554.708 55.379 554.708 55.379C554.708 55.379 554.407 55.9229 554.106 55.8625C553.804 55.7416 551.453 54.8352 550.971 54.5935C550.489 54.3518 549.705 53.9892 549.645 53.8079C549.525 53.6266 549.344 53.3245 549.585 52.9619Z" fill="#1C75BC"/>
<path d="M579.783 53.0229C579.783 53.0229 578.939 53.6877 578.337 54.0502C577.674 54.4128 576.227 55.2588 574.901 55.3796C575.021 55.7422 575.443 55.9839 576.046 55.8026C576.709 55.6213 577.854 55.1984 578.517 54.7149C579.241 54.2315 579.904 53.7481 579.843 53.5064C579.843 53.1438 579.783 53.0229 579.783 53.0229Z" fill="#1C75BC"/>
<path d="M566.525 52.3587C567.791 52.8423 568.394 53.7492 568.394 55.0189C568.394 55.9862 568.092 56.7722 567.429 57.3163C566.766 57.8605 565.862 58.1628 564.596 58.1628C563.331 58.1628 562.427 57.8605 561.763 57.2559C561.161 56.6513 560.799 55.8653 560.799 54.9584C560.799 53.6888 561.462 52.7819 562.728 52.2982C561.643 51.6936 561.161 50.8472 561.161 49.8194C561.161 48.9729 561.462 48.3079 562.065 47.7638C562.668 47.2196 563.511 46.9778 564.596 46.9778C565.681 46.9778 566.585 47.2196 567.188 47.7638C567.791 48.3079 568.092 48.9729 568.092 49.7589C568.092 50.9076 567.55 51.7541 566.525 52.3587ZM566.103 54.8375C566.103 54.3538 565.983 53.9306 565.681 53.6283C565.38 53.326 565.079 53.1446 564.596 53.1446C564.174 53.1446 563.813 53.326 563.572 53.6283C563.27 53.9306 563.15 54.3538 563.15 54.898C563.15 55.4421 563.27 55.8049 563.572 56.1072C563.873 56.4095 564.174 56.5304 564.657 56.5304C565.079 56.5304 565.44 56.4095 565.742 56.1072C565.922 55.7444 566.103 55.3817 566.103 54.8375ZM565.862 50.1821C565.862 49.7589 565.742 49.3962 565.561 49.1543C565.32 48.9125 565.018 48.7311 564.596 48.7311C564.235 48.7311 563.933 48.852 563.692 49.0939C563.451 49.3357 563.331 49.6985 563.331 50.1821C563.331 50.6054 563.451 50.9076 563.692 51.2099C563.933 51.4518 564.235 51.6332 564.657 51.6332C565.018 51.6332 565.38 51.5122 565.561 51.2099C565.742 50.9681 565.862 50.6054 565.862 50.1821Z" fill="white"/>
<path d="M559.833 189.721L554.709 191.898C554.709 191.898 553.865 192.2 553.323 193.651C552.72 195.102 549.586 202.237 549.586 202.237C549.586 202.237 549.104 202.962 550.128 203.446C551.153 203.99 553.805 205.078 554.106 205.139C554.468 205.199 554.769 204.655 554.83 204.473C554.89 204.292 556.035 201.753 556.337 201.571C556.457 206.106 556.216 216.626 555.975 219.407C555.734 222.188 555.131 224.002 555.975 224.365C556.819 224.727 559.531 225.151 565.679 225.151C571.767 225.151 573.455 224.486 573.455 224.486C573.455 224.486 574.238 224.365 573.937 223.276C573.635 222.188 573.455 219.891 573.334 218.561C573.214 217.17 573.093 202.357 573.093 201.269C573.756 202.539 574.841 204.413 574.962 204.776C575.082 205.199 575.625 205.259 576.589 204.957C577.614 204.594 579.964 203.385 579.904 202.781C579.844 202.176 577.975 198.246 577.674 197.339C577.312 196.432 576.589 193.833 575.383 192.563C574.118 191.293 571.164 190.447 570.32 190.024C569.476 189.6 569.235 189.721 569.235 189.721C569.235 189.721 567.307 190.266 564.413 190.266C561.52 190.266 560.375 189.298 559.833 189.721Z" fill="#2B3990"/>
<path d="M560.192 189.601C560.192 189.601 560.614 188.694 561.337 189.057C562.121 189.419 563.507 189.48 564.652 189.48C565.858 189.48 568.088 188.996 568.088 188.996C568.088 188.996 568.811 188.634 569.233 189.661C569.233 189.782 569.233 189.782 569.233 189.782C569.233 189.782 567.365 190.326 564.471 190.326C561.639 190.205 560.192 189.601 560.192 189.601Z" fill="#1C75BC"/>
<path d="M549.585 202.297C549.585 202.297 550.61 203.022 552.056 203.747C553.503 204.473 554.708 204.714 554.708 204.714C554.708 204.714 554.407 205.258 554.106 205.198C553.804 205.077 551.453 204.17 550.971 203.929C550.489 203.687 549.705 203.324 549.645 203.143C549.525 202.962 549.344 202.66 549.585 202.297Z" fill="#1C75BC"/>
<path d="M579.783 202.358C579.783 202.358 578.939 203.023 578.337 203.385C577.674 203.748 576.227 204.594 574.901 204.715C575.021 205.077 575.443 205.319 576.046 205.138C576.709 204.957 577.854 204.534 578.517 204.05C579.241 203.567 579.904 203.083 579.843 202.842C579.843 202.479 579.783 202.358 579.783 202.358Z" fill="#1C75BC"/>
<path d="M558.145 208.586V206.833H559.652V199.456H558.085V197.703H562.063V206.833H563.449V208.586H558.145Z" fill="white"/>
<path d="M571.588 200.484L569.72 200.665C569.478 199.758 569.057 199.275 568.454 199.275C567.972 199.275 567.55 199.577 567.309 200.121C567.007 200.726 566.887 201.451 566.887 202.358C567.369 201.874 568.032 201.633 568.815 201.633C569.659 201.633 570.383 201.935 570.925 202.479C571.467 203.084 571.769 203.87 571.769 205.018C571.769 206.228 571.468 207.195 570.865 207.799C570.262 208.404 569.478 208.767 568.454 208.767C567.128 208.767 566.163 208.344 565.5 207.437C564.837 206.53 564.536 205.2 564.536 203.265C564.536 201.27 564.898 199.819 565.621 198.912C566.344 198.005 567.309 197.582 568.574 197.582C570.322 197.582 571.347 198.549 571.588 200.484ZM566.826 203.93C566.826 205.139 567.007 205.925 567.248 206.409C567.489 206.832 567.851 207.074 568.333 207.074C568.695 207.074 568.936 206.893 569.177 206.59C569.418 206.288 569.478 205.804 569.478 205.2C569.478 204.656 569.358 204.172 569.117 203.93C568.876 203.628 568.574 203.507 568.152 203.507C567.73 203.446 567.309 203.567 566.826 203.93Z" fill="white"/>
<path d="M305.437 91.9006L300.314 94.0771C300.314 94.0771 299.47 94.3794 298.928 95.8304C298.325 97.2815 295.191 104.416 295.191 104.416C295.191 104.416 294.709 105.141 295.733 105.625C296.758 106.169 299.41 107.257 299.711 107.318C300.073 107.378 300.374 106.834 300.435 106.653C300.495 106.471 301.64 103.932 301.942 103.751C302.062 108.285 301.821 118.805 301.58 121.586C301.339 124.367 300.736 126.181 301.58 126.544C302.424 126.907 305.136 127.33 311.284 127.33C317.372 127.33 319.06 126.665 319.06 126.665C319.06 126.665 319.843 126.544 319.542 125.456C319.24 124.367 319.06 122.07 318.939 120.74C318.819 119.349 318.698 104.537 318.698 103.448C319.361 104.718 320.446 106.592 320.566 106.955C320.687 107.378 321.23 107.439 322.194 107.136C323.219 106.774 325.569 105.564 325.509 104.96C325.449 104.355 323.58 100.425 323.279 99.5185C322.917 98.6116 322.194 96.0118 320.988 94.7422C319.723 93.4725 316.769 92.6261 315.925 92.2029C315.081 91.7797 314.84 91.9006 314.84 91.9006C314.84 91.9006 312.912 92.4447 310.018 92.4447C307.125 92.4447 305.98 91.4774 305.437 91.9006Z" fill="#ED1C24"/>
<path d="M305.797 91.7796C305.797 91.7796 306.219 90.8732 306.942 91.2358C307.726 91.5984 309.112 91.6588 310.257 91.6588C311.463 91.6588 313.693 91.1754 313.693 91.1754C313.693 91.1754 314.416 90.8128 314.838 91.8401C314.838 91.9609 314.838 91.9609 314.838 91.9609C314.838 91.9609 312.97 92.5048 310.076 92.5048C307.243 92.3839 305.797 91.7796 305.797 91.7796Z" fill="#F9ED32"/>
<path d="M295.19 104.477C295.19 104.477 296.215 105.202 297.661 105.927C299.108 106.652 300.313 106.894 300.313 106.894C300.313 106.894 300.012 107.438 299.711 107.378C299.409 107.257 297.058 106.35 296.576 106.109C296.094 105.867 295.31 105.504 295.25 105.323C295.13 105.142 294.949 104.84 295.19 104.477Z" fill="#F9ED32"/>
<path d="M325.388 104.537C325.388 104.537 324.544 105.202 323.941 105.565C323.278 105.927 321.832 106.773 320.506 106.894C320.626 107.257 321.048 107.498 321.651 107.317C322.314 107.136 323.459 106.713 324.122 106.229C324.845 105.746 325.508 105.262 325.448 105.021C325.448 104.658 325.388 104.537 325.388 104.537Z" fill="#F9ED32"/>
<path d="M310.441 109.442L310.32 112.586H303.389C303.389 111.618 303.449 110.893 303.63 110.409C303.811 109.865 304.052 109.381 304.413 108.898C304.775 108.414 305.257 107.87 305.86 107.265C306.704 106.479 307.246 105.935 307.487 105.573C307.728 105.21 307.909 104.787 307.909 104.363C307.909 104.001 307.789 103.759 307.608 103.517C307.427 103.275 307.186 103.215 306.885 103.215C306.463 103.215 306.161 103.396 305.92 103.759C305.739 104.121 305.619 104.726 305.559 105.512L303.569 105.391C303.569 104.363 303.75 103.577 304.052 103.033C304.353 102.489 304.775 102.126 305.317 101.884C305.86 101.643 306.402 101.522 307.065 101.522C308.09 101.522 308.934 101.824 309.476 102.368C310.079 102.912 310.381 103.638 310.381 104.484C310.381 104.968 310.32 105.391 310.139 105.754C309.959 106.117 309.718 106.479 309.476 106.721C309.175 106.963 308.753 107.386 308.03 107.87C307.005 108.595 306.342 109.2 306.101 109.623C305.86 110.047 305.679 110.47 305.619 110.772H308.753V109.381H310.441V109.442Z" fill="white"/>
<path d="M311.767 112.646V110.893H313.274V103.517H311.707V101.764H315.685V110.893H317.071V112.646H311.767Z" fill="white"/>
<path d="M305.431 186.869L300.308 189.046C300.308 189.046 299.464 189.348 298.921 190.799C298.319 192.25 295.184 199.384 295.184 199.384C295.184 199.384 294.702 200.11 295.727 200.594C296.752 201.138 299.404 202.226 299.705 202.287C300.067 202.347 300.368 201.803 300.428 201.621C300.489 201.44 301.634 198.901 301.935 198.719C302.056 203.254 301.815 213.774 301.574 216.555C301.332 219.336 300.73 221.15 301.574 221.513C302.417 221.875 305.13 222.299 311.278 222.299C317.366 222.299 319.053 221.634 319.053 221.634C319.053 221.634 319.837 221.513 319.535 220.424C319.234 219.336 319.053 217.039 318.933 215.709C318.812 214.318 318.692 199.505 318.692 198.417C319.355 199.687 320.44 201.561 320.56 201.924C320.681 202.347 321.223 202.407 322.188 202.105C323.212 201.742 325.563 200.533 325.503 199.929C325.442 199.324 323.574 195.394 323.273 194.487C322.911 193.58 322.188 190.981 320.982 189.711C319.716 188.441 316.763 187.595 315.919 187.172C315.075 186.748 314.834 186.869 314.834 186.869C314.834 186.869 312.905 187.413 310.012 187.413C307.119 187.413 305.974 186.507 305.431 186.869Z" fill="#ED1C24"/>
<path d="M305.794 186.749C305.794 186.749 306.216 185.842 306.939 186.205C307.723 186.568 309.109 186.628 310.254 186.628C311.46 186.628 313.69 186.145 313.69 186.145C313.69 186.145 314.413 185.782 314.835 186.809C314.835 186.93 314.835 186.93 314.835 186.93C314.835 186.93 312.966 187.474 310.073 187.474C307.24 187.414 305.794 186.749 305.794 186.749Z" fill="#F9ED32"/>
<path d="M295.182 199.445C295.182 199.445 296.207 200.17 297.654 200.895C299.1 201.62 300.306 201.862 300.306 201.862C300.306 201.862 300.004 202.406 299.703 202.346C299.402 202.225 297.051 201.318 296.569 201.077C296.087 200.835 295.303 200.472 295.243 200.291C295.182 200.11 294.941 199.808 295.182 199.445Z" fill="#F9ED32"/>
<path d="M325.382 199.506C325.382 199.506 324.538 200.171 323.935 200.533C323.272 200.896 321.825 201.742 320.499 201.863C320.62 202.225 321.042 202.467 321.644 202.286C322.307 202.105 323.453 201.682 324.116 201.198C324.839 200.715 325.502 200.231 325.442 199.99C325.442 199.627 325.382 199.506 325.382 199.506Z" fill="#F9ED32"/>
<path d="M303.804 207.487V205.733H305.311V198.357H303.743V196.604H307.722V205.733H309.108V207.487H303.804Z" fill="white"/>
<path d="M310.193 204.705L312.062 204.524C312.303 205.43 312.664 205.914 313.327 205.914C314.292 205.914 314.834 204.886 314.955 202.831C314.412 203.254 313.689 203.496 312.966 203.496C312.182 203.496 311.459 203.193 310.916 202.589C310.374 201.984 310.073 201.138 310.073 200.11C310.073 199.022 310.374 198.175 310.977 197.51C311.579 196.845 312.423 196.482 313.508 196.482C314.714 196.482 315.678 196.906 316.281 197.752C316.944 198.599 317.245 200.05 317.245 202.045C317.245 205.793 315.919 207.667 313.267 207.667C312.423 207.667 311.7 207.426 311.157 206.942C310.555 206.398 310.253 205.672 310.193 204.705ZM314.955 201.259V201.138C314.955 200.291 314.834 199.626 314.533 199.022C314.292 198.417 313.87 198.175 313.327 198.175C312.966 198.175 312.725 198.357 312.484 198.659C312.303 198.961 312.182 199.445 312.182 199.989C312.182 200.473 312.303 200.896 312.544 201.259C312.785 201.621 313.086 201.803 313.568 201.803C313.99 201.742 314.412 201.621 314.955 201.259Z" fill="white"/>
<path d="M305.437 281.839L300.314 284.015C300.314 284.015 299.47 284.318 298.928 285.769C298.325 287.22 295.191 294.354 295.191 294.354C295.191 294.354 294.709 295.079 295.733 295.563C296.758 296.107 299.41 297.196 299.711 297.256C300.073 297.316 300.374 296.772 300.435 296.591C300.495 296.41 301.64 293.87 301.942 293.689C302.062 298.223 301.821 308.743 301.58 311.524C301.339 314.306 300.736 316.119 301.58 316.482C302.424 316.845 305.136 317.268 311.284 317.268C317.372 317.268 319.06 316.603 319.06 316.603C319.06 316.603 319.843 316.482 319.542 315.394C319.24 314.306 319.06 312.008 318.939 310.678C318.819 309.287 318.698 294.475 318.698 293.387C319.361 294.656 320.446 296.53 320.566 296.893C320.687 297.316 321.23 297.377 322.194 297.075C323.219 296.712 325.569 295.503 325.509 294.898C325.449 294.293 323.58 290.364 323.279 289.457C322.917 288.55 322.194 285.95 320.988 284.68C319.723 283.411 316.769 282.564 315.925 282.141C315.081 281.718 314.84 281.839 314.84 281.839C314.84 281.839 312.912 282.383 310.018 282.383C307.125 282.383 305.98 281.416 305.437 281.839Z" fill="#ED1C24"/>
<path d="M305.797 281.718C305.797 281.718 306.219 280.811 306.942 281.174C307.726 281.537 309.112 281.597 310.257 281.597C311.463 281.597 313.693 281.114 313.693 281.114C313.693 281.114 314.416 280.751 314.838 281.778C314.838 281.899 314.838 281.899 314.838 281.899C314.838 281.899 312.97 282.443 310.076 282.443C307.243 282.383 305.797 281.718 305.797 281.718Z" fill="#F9ED32"/>
<path d="M295.19 294.414C295.19 294.414 296.215 295.139 297.661 295.864C299.108 296.589 300.313 296.831 300.313 296.831C300.313 296.831 300.012 297.375 299.711 297.314C299.409 297.194 297.058 296.287 296.576 296.045C296.094 295.804 295.31 295.441 295.25 295.26C295.13 295.079 294.949 294.776 295.19 294.414Z" fill="#F9ED32"/>
<path d="M325.388 294.475C325.388 294.475 324.544 295.14 323.941 295.502C323.278 295.865 321.832 296.711 320.506 296.832C320.626 297.194 321.048 297.436 321.651 297.255C322.314 297.073 323.459 296.65 324.122 296.167C324.845 295.684 325.508 295.2 325.448 294.959C325.448 294.596 325.388 294.475 325.388 294.475Z" fill="#F9ED32"/>
<path d="M304.474 300.703V298.949H305.98V291.573H304.413V289.82H308.391V298.949H309.778V300.703H304.474Z" fill="white"/>
<path d="M311.767 300.702V298.949H313.274V291.573H311.707V289.819H315.685V298.949H317.071V300.702H311.767Z" fill="white"/>
<path d="M158.908 311.685L153.785 313.861C153.785 313.861 152.941 314.163 152.399 315.614C151.796 317.065 148.662 324.2 148.662 324.2C148.662 324.2 148.179 324.925 149.204 325.409C150.229 325.953 152.881 327.041 153.182 327.102C153.544 327.162 153.845 326.618 153.906 326.437C153.966 326.255 155.111 323.716 155.412 323.535C155.533 328.069 155.292 338.589 155.051 341.37C154.81 344.151 154.207 345.965 155.051 346.328C155.895 346.691 158.607 347.114 164.755 347.114C170.843 347.114 172.531 346.449 172.531 346.449C172.531 346.449 173.314 346.328 173.013 345.24C172.711 344.151 172.531 341.854 172.41 340.524C172.289 339.133 172.169 324.321 172.169 323.232C172.832 324.502 173.917 326.376 174.037 326.739C174.158 327.162 174.7 327.223 175.665 326.92C176.69 326.558 179.04 325.348 178.98 324.744C178.92 324.139 177.051 320.209 176.75 319.302C176.388 318.396 175.665 315.796 174.459 314.526C173.194 313.256 170.24 312.41 169.396 311.987C168.552 311.564 168.311 311.685 168.311 311.685C168.311 311.685 166.383 312.229 163.489 312.229C160.596 312.229 159.451 311.322 158.908 311.685Z" fill="#ED1C24"/>
<path d="M159.271 311.564C159.271 311.564 159.693 310.657 160.416 311.02C161.2 311.383 162.586 311.443 163.731 311.443C164.937 311.443 167.167 310.96 167.167 310.96C167.167 310.96 167.89 310.597 168.312 311.624C168.312 311.745 168.312 311.745 168.312 311.745C168.312 311.745 166.443 312.289 163.55 312.289C160.778 312.229 159.271 311.564 159.271 311.564Z" fill="#F9ED32"/>
<path d="M148.723 324.26C148.723 324.26 149.747 324.985 151.194 325.711C152.641 326.436 153.846 326.677 153.846 326.677C153.846 326.677 153.545 327.221 153.243 327.161C152.942 327.04 150.591 326.134 150.109 325.892C149.627 325.65 148.843 325.288 148.783 325.106C148.662 324.925 148.421 324.623 148.723 324.26Z" fill="#F9ED32"/>
<path d="M178.919 324.322C178.919 324.322 178.075 324.986 177.472 325.349C176.809 325.711 175.363 326.557 174.037 326.678C174.157 327.041 174.579 327.282 175.182 327.101C175.845 326.92 176.99 326.497 177.653 326.014C178.376 325.53 179.039 325.047 178.979 324.805C178.919 324.442 178.919 324.322 178.919 324.322Z" fill="#F9ED32"/>
<path d="M167.101 328.345L166.981 331.489H160.049C160.049 330.521 160.11 329.796 160.29 329.312C160.471 328.768 160.712 328.284 161.074 327.801C161.436 327.317 161.918 326.773 162.521 326.168C163.364 325.382 163.907 324.838 164.148 324.475C164.389 324.113 164.57 323.689 164.57 323.266C164.57 322.903 164.449 322.662 164.269 322.42C164.088 322.178 163.847 322.117 163.545 322.117C163.123 322.117 162.822 322.299 162.581 322.662C162.4 323.024 162.279 323.629 162.219 324.415L160.23 324.294C160.23 323.266 160.411 322.48 160.712 321.936C161.014 321.392 161.436 321.029 161.978 320.787C162.521 320.545 163.063 320.425 163.726 320.425C164.751 320.425 165.595 320.727 166.137 321.271C166.74 321.815 167.041 322.541 167.041 323.387C167.041 323.871 166.981 324.294 166.8 324.657C166.619 325.019 166.378 325.382 166.137 325.624C165.836 325.866 165.414 326.289 164.69 326.773C163.666 327.498 163.003 328.103 162.762 328.526C162.521 328.949 162.34 329.373 162.279 329.675H165.414V328.284H167.101V328.345Z" fill="white"/>
<path d="M158.469 230.773L153.345 232.95C153.345 232.95 152.502 233.252 151.959 234.703C151.356 236.154 148.222 243.289 148.222 243.289C148.222 243.289 147.74 244.014 148.764 244.498C149.789 245.042 152.441 246.13 152.743 246.191C153.104 246.251 153.406 245.707 153.466 245.526C153.526 245.344 154.671 242.805 154.973 242.623C155.093 247.158 154.852 257.678 154.611 260.459C154.37 263.24 153.767 265.054 154.611 265.417C155.455 265.779 158.167 266.203 164.315 266.203C170.403 266.203 172.091 265.538 172.091 265.538C172.091 265.538 172.874 265.417 172.573 264.328C172.272 263.24 172.091 260.943 171.97 259.613C171.85 258.222 171.729 243.409 171.729 242.321C172.392 243.591 173.477 245.465 173.598 245.828C173.718 246.251 174.261 246.311 175.225 246.009C176.25 245.646 178.601 244.437 178.54 243.833C178.48 243.228 176.611 239.298 176.31 238.391C175.948 237.484 175.225 234.885 174.02 233.615C172.754 232.345 169.8 231.499 168.957 231.076C168.113 230.652 167.872 230.773 167.872 230.773C167.872 230.773 165.943 231.318 163.05 231.318C160.156 231.318 159.011 230.35 158.469 230.773Z" fill="#ED1C24"/>
<path d="M158.831 230.652C158.831 230.652 159.253 229.746 159.976 230.109C160.76 230.471 162.146 230.532 163.291 230.532C164.497 230.532 166.727 230.048 166.727 230.048C166.727 230.048 167.45 229.686 167.872 230.713C167.872 230.834 167.872 230.834 167.872 230.834C167.872 230.834 166.004 231.378 163.111 231.378C160.338 231.257 158.831 230.652 158.831 230.652Z" fill="#F9ED32"/>
<path d="M148.283 243.349C148.283 243.349 149.308 244.074 150.754 244.799C152.201 245.524 153.407 245.766 153.407 245.766C153.407 245.766 153.105 246.31 152.804 246.249C152.502 246.129 150.152 245.222 149.67 244.98C149.187 244.739 148.404 244.376 148.344 244.195C148.223 244.014 147.982 243.651 148.283 243.349Z" fill="#F9ED32"/>
<path d="M178.479 243.349C178.479 243.349 177.635 244.014 177.033 244.376C176.37 244.739 174.923 245.585 173.597 245.706C173.717 246.068 174.139 246.31 174.742 246.129C175.405 245.947 176.55 245.524 177.213 245.041C177.937 244.557 178.6 244.074 178.539 243.832C178.479 243.47 178.479 243.349 178.479 243.349Z" fill="#F9ED32"/>
<path d="M159.429 248.315L161.539 248.133C161.539 249.403 162.021 250.068 162.985 250.068C163.407 250.068 163.769 249.887 164.01 249.584C164.251 249.282 164.432 248.859 164.432 248.436C164.432 247.952 164.311 247.589 164.07 247.287C163.829 246.985 163.407 246.803 162.925 246.803C162.805 246.803 162.624 246.803 162.443 246.803V244.989C163.046 244.989 163.528 244.869 163.769 244.566C164.07 244.264 164.191 243.962 164.191 243.538C164.191 243.176 164.07 242.873 163.89 242.692C163.648 242.45 163.407 242.329 163.046 242.329C162.262 242.329 161.9 242.813 161.9 243.78L159.851 243.599C159.911 242.632 160.213 241.846 160.816 241.362C161.418 240.818 162.202 240.576 163.166 240.576C164.251 240.576 165.035 240.818 165.638 241.362C166.24 241.846 166.542 242.571 166.542 243.478C166.542 244.627 165.999 245.473 164.914 245.957C166.24 246.38 166.903 247.287 166.903 248.557C166.903 249.584 166.542 250.37 165.879 250.975C165.216 251.58 164.311 251.821 163.227 251.821C160.816 251.761 159.61 250.612 159.429 248.315Z" fill="white"/>
<path d="M158.469 157.073L153.345 159.25C153.345 159.25 152.502 159.552 151.959 161.003C151.356 162.454 148.222 169.588 148.222 169.588C148.222 169.588 147.74 170.314 148.764 170.797C149.789 171.341 152.441 172.43 152.743 172.49C153.104 172.551 153.406 172.006 153.466 171.825C153.526 171.644 154.671 169.104 154.973 168.923C155.093 173.457 154.852 183.977 154.611 186.759C154.37 189.54 153.767 191.353 154.611 191.716C155.455 192.079 158.167 192.502 164.315 192.502C170.403 192.502 172.091 191.837 172.091 191.837C172.091 191.837 172.874 191.716 172.573 190.628C172.272 189.54 172.091 187.242 171.97 185.912C171.85 184.522 171.729 169.709 171.729 168.621C172.392 169.89 173.477 171.765 173.598 172.127C173.718 172.551 174.261 172.611 175.225 172.309C176.25 171.946 178.601 170.737 178.54 170.132C178.48 169.528 176.611 165.598 176.31 164.691C175.948 163.784 175.225 161.184 174.02 159.915C172.754 158.645 169.8 157.798 168.957 157.375C168.113 156.952 167.872 157.073 167.872 157.073C167.872 157.073 165.943 157.617 163.05 157.617C160.156 157.617 159.011 156.71 158.469 157.073Z" fill="#ED1C24"/>
<path d="M158.831 156.952C158.831 156.952 159.253 156.046 159.976 156.409C160.76 156.771 162.146 156.832 163.291 156.832C164.497 156.832 166.727 156.348 166.727 156.348C166.727 156.348 167.45 155.986 167.872 157.013C167.872 157.134 167.872 157.134 167.872 157.134C167.872 157.134 166.004 157.678 163.111 157.678C160.338 157.617 158.831 156.952 158.831 156.952Z" fill="#F9ED32"/>
<path d="M148.283 169.649C148.283 169.649 149.308 170.374 150.754 171.099C152.201 171.824 153.407 172.066 153.407 172.066C153.407 172.066 153.105 172.61 152.804 172.549C152.502 172.428 150.152 171.522 149.67 171.28C149.187 171.039 148.404 170.676 148.344 170.495C148.223 170.313 147.982 170.011 148.283 169.649Z" fill="#F9ED32"/>
<path d="M178.479 169.71C178.479 169.71 177.635 170.375 177.033 170.737C176.37 171.1 174.923 171.946 173.597 172.067C173.717 172.429 174.139 172.671 174.742 172.49C175.405 172.308 176.55 171.885 177.213 171.402C177.937 170.919 178.6 170.435 178.539 170.193C178.479 169.831 178.479 169.71 178.479 169.71Z" fill="#F9ED32"/>
<path d="M156.959 176.299V174.546H158.466V167.17H156.899V165.417H160.877V174.546H162.264V176.299H156.959Z" fill="white"/>
<path d="M162.986 173.398L165.036 173.156C165.156 174.184 165.638 174.728 166.482 174.728C166.964 174.728 167.326 174.547 167.567 174.245C167.808 173.942 167.929 173.459 167.929 172.915C167.929 171.645 167.447 170.98 166.543 170.98C166 170.98 165.578 171.282 165.216 171.826L163.469 170.98L163.77 165.478H169.858V168.017H168.291L168.17 167.231H165.397L165.216 169.831C165.759 169.408 166.422 169.227 167.085 169.227C168.17 169.227 168.954 169.589 169.556 170.254C170.159 170.919 170.46 171.766 170.46 172.794C170.46 173.821 170.159 174.728 169.496 175.454C168.893 176.179 167.929 176.542 166.663 176.542C165.578 176.542 164.734 176.24 164.132 175.696C163.529 175.031 163.107 174.305 162.986 173.398Z" fill="white"/>
<path d="M158.469 75.6352L153.345 77.8117C153.345 77.8117 152.502 78.114 151.959 79.5651C151.356 81.0161 148.222 88.1503 148.222 88.1503C148.222 88.1503 147.74 88.8758 148.764 89.3595C149.789 89.9036 152.441 90.9919 152.743 91.0524C153.104 91.1128 153.406 90.5687 153.466 90.3873C153.526 90.2059 154.671 87.6666 154.973 87.4852C155.093 92.0197 154.852 102.54 154.611 105.321C154.37 108.102 153.767 109.916 154.611 110.278C155.455 110.641 158.167 111.064 164.315 111.064C170.403 111.064 172.091 110.399 172.091 110.399C172.091 110.399 172.874 110.278 172.573 109.19C172.272 108.102 172.091 105.804 171.97 104.474C171.85 103.084 171.729 88.2712 171.729 87.1829C172.392 88.4526 173.477 90.3268 173.598 90.6896C173.718 91.1128 174.261 91.1733 175.225 90.871C176.25 90.5082 178.601 89.299 178.54 88.6944C178.48 88.0898 176.611 84.16 176.31 83.2531C175.948 82.3462 175.225 79.7464 174.02 78.4768C172.754 77.2071 169.8 76.3607 168.957 75.9375C168.113 75.5143 167.872 75.6352 167.872 75.6352C167.872 75.6352 165.943 76.1793 163.05 76.1793C160.156 76.1793 159.011 75.212 158.469 75.6352Z" fill="#ED1C24"/>
<path d="M158.831 75.5143C158.831 75.5143 159.253 74.6078 159.976 74.9704C160.76 75.333 162.146 75.3934 163.291 75.3934C164.497 75.3934 166.727 74.91 166.727 74.91C166.727 74.91 167.45 74.5474 167.872 75.5747C167.872 75.6955 167.872 75.6955 167.872 75.6955C167.872 75.6955 166.004 76.2394 163.111 76.2394C160.338 76.1185 158.831 75.5143 158.831 75.5143Z" fill="#F9ED32"/>
<path d="M148.284 88.21C148.284 88.21 149.309 88.9351 150.755 89.6602C152.202 90.3854 153.407 90.6271 153.407 90.6271C153.407 90.6271 153.106 91.1709 152.805 91.1105C152.503 90.9896 150.152 90.0832 149.67 89.8415C149.188 89.5998 148.404 89.2372 148.344 89.0559C148.284 88.8747 147.983 88.5725 148.284 88.21Z" fill="#F9ED32"/>
<path d="M178.479 88.21C178.479 88.21 177.635 88.8747 177.033 89.2372C176.37 89.5998 174.923 90.4458 173.597 90.5666C173.717 90.9292 174.139 91.1709 174.742 90.9896C175.405 90.8084 176.55 90.3854 177.213 89.9019C177.937 89.4185 178.6 88.9351 178.539 88.6934C178.479 88.3912 178.479 88.21 178.479 88.21Z" fill="#F9ED32"/>
<path d="M156.659 94.9218V93.1684H158.166V85.7924H156.599V84.0391H160.577V93.1684H161.963V94.9218H156.659Z" fill="white"/>
<path d="M168.472 89.2381C169.738 89.7218 170.34 90.6287 170.34 91.8983C170.34 92.8657 170.039 93.6516 169.376 94.1958C168.713 94.7399 167.809 95.0422 166.543 95.0422C165.277 95.0422 164.373 94.7399 163.71 94.1353C163.107 93.5307 162.746 92.7447 162.746 91.8378C162.746 90.5682 163.409 89.6613 164.675 89.1776C163.59 88.573 163.107 87.7266 163.107 86.6988C163.107 85.8523 163.409 85.1873 164.012 84.6432C164.614 84.099 165.458 83.8572 166.543 83.8572C167.628 83.8572 168.532 84.099 169.135 84.6432C169.738 85.1873 170.039 85.8523 170.039 86.6383C169.979 87.787 169.497 88.6335 168.472 89.2381ZM168.05 91.7169C168.05 91.2332 167.929 90.81 167.628 90.5077C167.327 90.2054 167.025 90.0241 166.543 90.0241C166.121 90.0241 165.76 90.2054 165.518 90.5077C165.217 90.81 165.097 91.2332 165.097 91.7774C165.097 92.3215 165.217 92.6843 165.518 92.9866C165.82 93.2889 166.121 93.4098 166.603 93.4098C167.025 93.4098 167.387 93.2889 167.688 92.9866C167.869 92.6238 168.05 92.2006 168.05 91.7169ZM167.809 87.0011C167.809 86.5779 167.688 86.2151 167.508 85.9733C167.266 85.7314 166.965 85.5501 166.543 85.5501C166.182 85.5501 165.88 85.671 165.639 85.9128C165.398 86.1547 165.277 86.5174 165.277 87.0011C165.277 87.4243 165.398 87.7266 165.639 88.0289C165.88 88.2707 166.182 88.4521 166.603 88.4521C166.965 88.4521 167.327 88.3312 167.508 88.0289C167.688 87.7871 167.809 87.4848 167.809 87.0011Z" fill="white"/>
<path d="M778.508 11.0635H757.766H32.1007H11.2988C10.8792 11.0635 10.5195 11.423 10.5195 11.8425V32.577V126.961V176.52V241.301V289.721V384.525V405.259C10.5195 405.679 10.8792 406.038 11.2988 406.038H32.0407H32.1007H757.706H778.448C778.867 406.038 779.227 405.679 779.227 405.259V384.525V289.781V241.361V176.52V126.961V32.637V11.9025C779.287 11.423 778.927 11.0635 778.508 11.0635ZM32.88 404.54C32.4603 393.274 23.4083 384.225 12.1381 383.805V290.56H105.956C106.376 290.56 106.735 290.201 106.735 289.781V238.604C114.648 237.825 120.703 225.18 120.703 209.18C120.703 193.18 114.648 180.595 106.735 179.756V126.961C106.735 126.542 106.376 126.182 105.956 126.182H12.1381V33.3561C23.4083 32.9366 32.4603 23.8877 32.88 12.6216H390.167V148.235C357.676 148.654 331.359 175.202 331.359 207.802C331.359 240.402 357.676 266.949 390.167 267.369V404.54H32.88ZM106.735 181.314C113.629 182.213 119.085 194.318 119.085 209.18C119.085 223.982 113.629 236.147 106.735 237.046V181.314ZM105.117 180.475V237.885V289.002H12.1381V242.14H48.0467C48.4663 242.14 48.826 241.78 48.826 241.361V176.52C48.826 176.101 48.4663 175.741 48.0467 175.741H12.1381V127.8H105.177V180.475H105.117ZM12.1381 177.299H47.2074V240.522H12.1381V177.299ZM390.108 265.87C358.455 265.451 332.858 239.623 332.858 207.862C332.858 176.161 358.455 150.272 390.108 149.853V265.87ZM391.726 149.853C423.378 150.272 448.976 176.101 448.976 207.862C448.976 239.563 423.378 265.451 391.726 265.87V149.853ZM391.726 267.428C424.218 267.009 450.535 240.462 450.535 207.862C450.535 175.262 424.218 148.714 391.726 148.295V12.6216H756.987C757.406 23.8877 766.458 32.9366 777.728 33.3561V126.182H683.85C683.431 126.182 683.071 126.542 683.071 126.961V179.756C675.158 180.535 669.103 193.18 669.103 209.18C669.103 225.18 675.158 237.765 683.071 238.604V289.781C683.071 290.201 683.431 290.56 683.85 290.56H777.668V383.805C766.398 384.225 757.346 393.274 756.927 404.54H391.726V267.428ZM777.668 175.741H741.76C741.34 175.741 740.981 176.101 740.981 176.52V241.301C740.981 241.72 741.34 242.08 741.76 242.08H777.668V288.942H684.63V237.825V180.415V127.68H777.668V175.741ZM777.668 240.522H742.599V177.299H777.728V240.522H777.668ZM683.071 237.046C676.177 236.147 670.722 224.042 670.722 209.18C670.722 194.378 676.177 182.213 683.071 181.314V237.046ZM777.668 12.6216V31.798C767.297 31.3785 758.905 23.0488 758.485 12.6216H777.668ZM12.1381 12.6216H31.3213C30.9017 22.9888 22.569 31.3785 12.1381 31.798V12.6216ZM12.1381 404.54V385.364C22.509 385.783 30.9017 394.113 31.3213 404.54H12.1381ZM777.668 404.54H758.485C758.905 394.173 767.238 385.783 777.668 385.364V404.54Z" fill="white"/>
<path d="M81.1902 220.115C82.5884 220.115 83.7218 218.927 83.7218 217.462C83.7218 215.997 82.5884 214.809 81.1902 214.809C79.7921 214.809 78.6587 215.997 78.6587 217.462C78.6587 218.927 79.7921 220.115 81.1902 220.115Z" fill="white"/>
<path d="M710.472 219.247C711.645 219.247 712.596 218.253 712.596 217.028C712.596 215.802 711.645 214.809 710.472 214.809C709.299 214.809 708.349 215.802 708.349 217.028C708.349 218.253 709.299 219.247 710.472 219.247Z" fill="white"/>
</svg>
